Rokkitt Light-900.ufo
<glyph name="exclam" format="1">
  <advance width="538"/>
  <unicode hex="0021"/>
  <outline>
    <contour>
      <point x="199" y="494" type="line"/>
      <point x="349" y="494" type="line"/>
      <point x="387" y="991" type="line"/>
      <point x="387" y="1291" type="line"/>
      <point x="153" y="1291" type="line"/>
      <point x="153" y="991" type="line"/>
    </contour>
    <contour>
      <point x="131" y="0" type="line"/>
      <point x="407" y="0" type="line"/>
      <point x="407" y="272" type="line"/>
      <point x="131" y="272" type="line"/>
    </contour>
  </outline>
</glyph>
<glyph name="quotedbl" format="1">
  <advance width="951"/>
  <unicode hex="0022"/>
  <outline>
    <contour>
      <point x="234" y="748" type="line"/>
      <point x="368" y="748" type="line"/>
      <point x="414" y="1273" type="line"/>
      <point x="180" y="1273" type="line"/>
    </contour>
    <contour>
      <point x="580" y="748" type="line"/>
      <point x="712" y="748" type="line"/>
      <point x="760" y="1273" type="line"/>
      <point x="524" y="1273" type="line"/>
    </contour>
  </outline>
</glyph>
<glyph name="numbersign" format="1">
  <advance width="1266"/>
  <unicode hex="0023"/>
  <outline>
    <contour>
      <point x="148" y="-22" type="line"/>
      <point x="323" y="-22" type="line"/>
      <point x="404" y="339" type="line"/>
      <point x="727" y="339" type="line"/>
      <point x="644" y="-22" type="line"/>
      <point x="821" y="-22" type="line"/>
      <point x="902" y="339" type="line"/>
      <point x="1208" y="339" type="line"/>
      <point x="1196" y="498" type="line"/>
      <point x="940" y="498" type="line"/>
      <point x="1003" y="783" type="line"/>
      <point x="1212" y="783" type="line"/>
      <point x="1200" y="942" type="line"/>
      <point x="1039" y="942" type="line"/>
      <point x="1122" y="1307" type="line"/>
      <point x="943" y="1307" type="line"/>
      <point x="863" y="942" type="line"/>
      <point x="544" y="942" type="line"/>
      <point x="626" y="1307" type="line"/>
      <point x="449" y="1307" type="line"/>
      <point x="367" y="942" type="line"/>
      <point x="60" y="942" type="line"/>
      <point x="72" y="783" type="line"/>
      <point x="327" y="783" type="line"/>
      <point x="268" y="498" type="line"/>
      <point x="54" y="498" type="line"/>
      <point x="66" y="339" type="line"/>
      <point x="228" y="339" type="line"/>
    </contour>
    <contour>
      <point x="442" y="498" type="line"/>
      <point x="503" y="783" type="line"/>
      <point x="825" y="783" type="line"/>
      <point x="763" y="498" type="line"/>
    </contour>
  </outline>
</glyph>
<glyph name="dollar" format="1">
  <advance width="980"/>
  <unicode hex="0024"/>
  <outline>
    <contour>
      <point x="463" y="-184" type="line"/>
      <point x="543" y="-184" type="line"/>
      <point x="543" y="1367" type="line"/>
      <point x="463" y="1367" type="line"/>
    </contour>
    <component base="S"/>
  </outline>
</glyph>
<glyph name="ampersand" format="1">
  <advance width="1525"/>
  <unicode hex="0026"/>
  <outline>
    <contour>
      <point x="357" y="1012" type="curve" smooth="yes"/>
      <point x="357" y="905"/>
      <point x="400" y="829"/>
      <point x="466" y="746" type="curve"/>
      <point x="264" y="664"/>
      <point x="132" y="553"/>
      <point x="132" y="379" type="curve" smooth="yes"/>
      <point x="132" y="163"/>
      <point x="311" y="-19"/>
      <point x="590" y="-19" type="curve" smooth="yes"/>
      <point x="748" y="-19"/>
      <point x="874" y="32"/>
      <point x="989" y="135" type="curve"/>
      <point x="1093" y="0" type="line"/>
      <point x="1445" y="0" type="line"/>
      <point x="1445" y="173" type="line"/>
      <point x="1243" y="173" type="line"/>
      <point x="1142" y="295" type="line"/>
      <point x="1206" y="372"/>
      <point x="1255" y="459"/>
      <point x="1294" y="570" type="curve"/>
      <point x="1443" y="572" type="line"/>
      <point x="1443" y="739" type="line"/>
      <point x="1147" y="739" type="line"/>
      <point x="1122" y="639"/>
      <point x="1087" y="525"/>
      <point x="1016" y="442" type="curve"/>
      <point x="780" y="703" type="line"/>
      <point x="971" y="790"/>
      <point x="1041" y="891"/>
      <point x="1041" y="1024" type="curve" smooth="yes"/>
      <point x="1041" y="1171"/>
      <point x="912" y="1294"/>
      <point x="712" y="1294" type="curve" smooth="yes"/>
      <point x="496" y="1294"/>
      <point x="357" y="1171"/>
    </contour>
    <contour>
      <point x="870" y="279" type="line"/>
      <point x="799" y="204"/>
      <point x="720" y="174"/>
      <point x="630" y="174" type="curve" smooth="yes"/>
      <point x="474" y="174"/>
      <point x="380" y="295"/>
      <point x="380" y="391" type="curve" smooth="yes"/>
      <point x="380" y="490"/>
      <point x="448" y="562"/>
      <point x="576" y="617" type="curve"/>
    </contour>
    <contour>
      <point x="841" y="1008" type="curve" smooth="yes"/>
      <point x="841" y="962"/>
      <point x="820" y="903"/>
      <point x="674" y="838" type="curve"/>
      <point x="591" y="941"/>
      <point x="579" y="1000"/>
      <point x="579" y="1006" type="curve" smooth="yes"/>
      <point x="579" y="1087"/>
      <point x="627" y="1143"/>
      <point x="712" y="1143" type="curve" smooth="yes"/>
      <point x="787" y="1143"/>
      <point x="841" y="1082"/>
    </contour>
  </outline>
</glyph>
<glyph name="quotesingle" format="1">
  <advance width="621"/>
  <unicode hex="0027"/>
  <outline>
    <contour>
      <point x="192" y="1273" type="line"/>
      <point x="245" y="798" type="line"/>
      <point x="379" y="798" type="line"/>
      <point x="427" y="1273" type="line"/>
    </contour>
  </outline>
</glyph>
<glyph name="parenleft" format="1">
  <advance width="668"/>
  <unicode hex="0028"/>
  <outline>
    <contour>
      <point x="597" y="-134" type="curve"/>
      <point x="595" y="18" type="line"/>
      <point x="477" y="108"/>
      <point x="416" y="314"/>
      <point x="416" y="521" type="curve" smooth="yes"/>
      <point x="416" y="727"/>
      <point x="477" y="934"/>
      <point x="595" y="1025" type="curve"/>
      <point x="597" y="1172" type="line"/>
      <point x="290" y="1030"/>
      <point x="134" y="773"/>
      <point x="134" y="517" type="curve" smooth="yes"/>
      <point x="134" y="264"/>
      <point x="288" y="10"/>
    </contour>
  </outline>
</glyph>
<glyph name="parenright" format="1">
  <advance width="668"/>
  <unicode hex="0029"/>
  <outline>
    <contour>
      <point x="161" y="-144" type="line"/>
      <point x="470" y="0"/>
      <point x="624" y="274"/>
      <point x="624" y="527" type="curve" smooth="yes"/>
      <point x="624" y="783"/>
      <point x="468" y="1060"/>
      <point x="161" y="1202" type="curve"/>
      <point x="163" y="1055" type="line"/>
      <point x="281" y="964"/>
      <point x="342" y="737"/>
      <point x="342" y="531" type="curve" smooth="yes"/>
      <point x="342" y="324"/>
      <point x="281" y="98"/>
      <point x="163" y="8" type="curve"/>
    </contour>
  </outline>
</glyph>
<glyph name="plus" format="1">
  <advance width="1159"/>
  <unicode hex="002B"/>
  <outline>
    <contour>
      <point x="493" y="269" type="line"/>
      <point x="664" y="269" type="line"/>
      <point x="664" y="603" type="line"/>
      <point x="1019" y="603" type="line"/>
      <point x="1019" y="774" type="line"/>
      <point x="664" y="774" type="line"/>
      <point x="665" y="1122" type="line"/>
      <point x="494" y="1122" type="line"/>
      <point x="493" y="774" type="line"/>
      <point x="140" y="774" type="line"/>
      <point x="140" y="603" type="line"/>
      <point x="493" y="603" type="line"/>
    </contour>
  </outline>
</glyph>
<glyph name="comma" format="1">
  <advance width="625"/>
  <unicode hex="002C"/>
  <outline>
    <contour>
      <point x="186" y="-309" type="line"/>
      <point x="435" y="-303"/>
      <point x="452" y="-190"/>
      <point x="453" y="4" type="curve"/>
      <point x="453" y="277" type="line"/>
      <point x="172" y="277" type="line"/>
      <point x="172" y="0" type="line"/>
      <point x="311" y="0" type="line"/>
      <point x="311" y="-120"/>
      <point x="313" y="-190"/>
      <point x="186" y="-190" type="curve"/>
    </contour>
  </outline>
</glyph>
<glyph name="hyphen" format="1">
  <advance width="527"/>
  <unicode hex="002D"/>
  <outline>
    <contour>
      <point x="57" y="528" type="line"/>
      <point x="57" y="361" type="line"/>
      <point x="460" y="361" type="line"/>
      <point x="460" y="528" type="line"/>
    </contour>
    <contour>
      <point x="231" y="428" type="move" name="_mid"/>
    </contour>
  </outline>
</glyph>
<glyph name="slash" format="1">
  <advance width="667"/>
  <unicode hex="002F"/>
  <outline>
    <contour>
      <point x="613" y="1333" type="line"/>
      <point x="-101" y="18" type="line"/>
      <point x="28" y="-54" type="line"/>
      <point x="740" y="1261" type="line"/>
    </contour>
  </outline>
</glyph>
<glyph name="zero" format="1">
  <advance width="1194"/>
  <unicode hex="0030"/>
  <outline>
    <contour>
      <point x="598" y="180" type="curve" smooth="yes"/>
      <point x="472" y="175"/>
      <point x="406" y="309"/>
      <point x="406" y="571" type="curve" smooth="yes"/>
      <point x="406" y="835"/>
      <point x="472" y="972"/>
      <point x="598" y="972" type="curve" smooth="yes"/>
      <point x="724" y="972"/>
      <point x="789" y="835"/>
      <point x="789" y="571" type="curve" smooth="yes"/>
      <point x="789" y="314"/>
      <point x="724" y="180"/>
    </contour>
    <contour>
      <point x="598" y="-22" type="curve" smooth="yes"/>
      <point x="914" y="-22"/>
      <point x="1078" y="181"/>
      <point x="1077" y="571" type="curve" smooth="yes"/>
      <point x="1077" y="967"/>
      <point x="913" y="1174"/>
      <point x="598" y="1174" type="curve" smooth="yes"/>
      <point x="283" y="1174"/>
      <point x="119" y="967"/>
      <point x="119" y="571" type="curve" smooth="yes"/>
      <point x="119" y="181"/>
      <point x="283" y="-22"/>
    </contour>
  </outline>
</glyph>
<glyph name="one" format="1">
  <advance width="833"/>
  <unicode hex="0031"/>
  <outline>
    <contour>
      <point x="147" y="0" type="line"/>
      <point x="769" y="0" type="line"/>
      <point x="769" y="164" type="line"/>
      <point x="597" y="164" type="line"/>
      <point x="597" y="1151" type="line"/>
      <point x="131" y="1151" type="line"/>
      <point x="131" y="987" type="line"/>
      <point x="327" y="987" type="line"/>
      <point x="327" y="164" type="line"/>
      <point x="147" y="164" type="line"/>
    </contour>
  </outline>
</glyph>
<glyph name="two" format="1">
  <advance width="1194"/>
  <unicode hex="0032"/>
  <outline>
    <contour>
      <point x="193" y="0" type="line"/>
      <point x="1051" y="0" type="line"/>
      <point x="1047" y="388" type="line"/>
      <point x="842" y="388" type="line"/>
      <point x="840" y="164" type="line"/>
      <point x="509" y="164" type="line"/>
      <point x="740" y="401" type="line" smooth="yes"/>
      <point x="947" y="613"/>
      <point x="1049" y="746"/>
      <point x="1049" y="844" type="curve" smooth="yes"/>
      <point x="1049" y="1070"/>
      <point x="914" y="1174"/>
      <point x="620" y="1174" type="curve" smooth="yes"/>
      <point x="342" y="1174"/>
      <point x="177" y="1047"/>
      <point x="177" y="832" type="curve" smooth="yes"/>
      <point x="177" y="779"/>
      <point x="192" y="711"/>
      <point x="218" y="651" type="curve"/>
      <point x="462" y="651" type="line"/>
      <point x="445" y="686"/>
      <point x="435" y="742"/>
      <point x="435" y="802" type="curve" smooth="yes"/>
      <point x="435" y="909"/>
      <point x="501" y="972"/>
      <point x="614" y="972" type="curve" smooth="yes"/>
      <point x="721" y="972"/>
      <point x="770" y="934"/>
      <point x="770" y="852" type="curve" smooth="yes"/>
      <point x="770" y="786"/>
      <point x="699" y="689"/>
      <point x="552" y="540" type="curve" smooth="yes"/>
      <point x="194" y="176" type="line"/>
    </contour>
  </outline>
</glyph>
<glyph name="four" format="1">
  <advance width="940"/>
  <unicode hex="0034"/>
  <outline>
    <contour>
      <point x="462" y="1152" type="line"/>
      <point x="1" y="570" type="line"/>
      <point x="24" y="353" type="line"/>
      <point x="460" y="353" type="line"/>
      <point x="460" y="166" type="line"/>
      <point x="335" y="166" type="line"/>
      <point x="335" y="0" type="line"/>
      <point x="789" y="0" type="line"/>
      <point x="789" y="166" type="line"/>
      <point x="680" y="166" type="line"/>
      <point x="680" y="353" type="line"/>
      <point x="842" y="353" type="line"/>
      <point x="842" y="504" type="line"/>
      <point x="680" y="504" type="line"/>
      <point x="680" y="1152" type="line"/>
    </contour>
    <contour>
      <point x="460" y="504" type="line"/>
      <point x="158" y="504" type="line"/>
      <point x="460" y="882" type="line"/>
    </contour>
  </outline>
</glyph>
<glyph name="five" format="1">
  <advance width="1154"/>
  <unicode hex="0035"/>
  <outline>
    <contour>
      <point x="564" y="-22" type="curve" smooth="yes"/>
      <point x="789" y="-22"/>
      <point x="1017" y="103"/>
      <point x="1017" y="369" type="curve" smooth="yes"/>
      <point x="1017" y="636"/>
      <point x="823" y="745"/>
      <point x="647" y="745" type="curve" smooth="yes"/>
      <point x="546" y="745"/>
      <point x="452" y="710"/>
      <point x="402" y="648" type="curve"/>
      <point x="406" y="988" type="line"/>
      <point x="772" y="988" type="line"/>
      <point x="772" y="856" type="line"/>
      <point x="946" y="856" type="line"/>
      <point x="946" y="1152" type="line"/>
      <point x="198" y="1152" type="line"/>
      <point x="199" y="547" type="line"/>
      <point x="397" y="479" type="line"/>
      <point x="449" y="538"/>
      <point x="523" y="570"/>
      <point x="593" y="570" type="curve" smooth="yes"/>
      <point x="688" y="570"/>
      <point x="773" y="509"/>
      <point x="773" y="369" type="curve" smooth="yes"/>
      <point x="773" y="229"/>
      <point x="676" y="161"/>
      <point x="571" y="161" type="curve" smooth="yes"/>
      <point x="465" y="161"/>
      <point x="351" y="228"/>
      <point x="316" y="359" type="curve"/>
      <point x="128" y="263" type="line"/>
      <point x="162" y="78"/>
      <point x="362" y="-22"/>
    </contour>
  </outline>
</glyph>
<glyph name="six" format="1">
  <advance width="1194"/>
  <unicode hex="0036"/>
  <outline>
    <contour>
      <point x="614" y="-22" type="curve" smooth="yes"/>
      <point x="877" y="-22"/>
      <point x="1042" y="150"/>
      <point x="1042" y="412" type="curve" smooth="yes"/>
      <point x="1042" y="631"/>
      <point x="886" y="790"/>
      <point x="689" y="805" type="curve" smooth="yes"/>
      <point x="646" y="808"/>
      <point x="586" y="801"/>
      <point x="539" y="786" type="curve"/>
      <point x="827" y="1135" type="line"/>
      <point x="624" y="1280" type="line"/>
      <point x="304" y="866" type="line" smooth="yes"/>
      <point x="182" y="708"/>
      <point x="145" y="547"/>
      <point x="155" y="385" type="curve" smooth="yes"/>
      <point x="166" y="141"/>
      <point x="344" y="-22"/>
    </contour>
    <contour>
      <point x="598" y="182" type="curve" smooth="yes"/>
      <point x="485" y="182"/>
      <point x="409" y="268"/>
      <point x="409" y="397" type="curve" smooth="yes"/>
      <point x="409" y="527"/>
      <point x="485" y="613"/>
      <point x="598" y="613" type="curve" smooth="yes"/>
      <point x="705" y="613"/>
      <point x="775" y="530"/>
      <point x="775" y="406" type="curve" smooth="yes"/>
      <point x="775" y="272"/>
      <point x="705" y="182"/>
    </contour>
  </outline>
</glyph>
<glyph name="seven" format="1">
  <advance width="1154"/>
  <unicode hex="0037"/>
  <outline>
    <contour>
      <point x="350" y="988" type="line"/>
      <point x="760" y="988" type="line"/>
      <point x="656" y="744"/>
      <point x="398" y="0"/>
      <point x="397" y="0" type="curve"/>
      <point x="694" y="0" type="line"/>
      <point x="694" y="0"/>
      <point x="938" y="696"/>
      <point x="1051" y="977" type="curve"/>
      <point x="1051" y="1152" type="line"/>
      <point x="161" y="1152" type="line"/>
      <point x="161" y="769" type="line"/>
      <point x="350" y="769" type="line"/>
    </contour>
  </outline>
</glyph>
<glyph name="eight" format="1">
  <advance width="1212"/>
  <unicode hex="0038"/>
  <outline>
    <contour>
      <point x="609" y="-26" type="curve" smooth="yes"/>
      <point x="914" y="-26"/>
      <point x="1029" y="143"/>
      <point x="1029" y="300" type="curve" smooth="yes"/>
      <point x="1029" y="428"/>
      <point x="980" y="542"/>
      <point x="811" y="599" type="curve"/>
      <point x="966" y="680"/>
      <point x="990" y="792"/>
      <point x="990" y="871" type="curve" smooth="yes"/>
      <point x="990" y="1041"/>
      <point x="870" y="1178"/>
      <point x="605" y="1177" type="curve" smooth="yes"/>
      <point x="340" y="1178"/>
      <point x="219" y="1039"/>
      <point x="219" y="867" type="curve" smooth="yes"/>
      <point x="219" y="763"/>
      <point x="266" y="668"/>
      <point x="401" y="595" type="curve"/>
      <point x="238" y="538"/>
      <point x="182" y="426"/>
      <point x="182" y="313" type="curve" smooth="yes"/>
      <point x="182" y="154"/>
      <point x="273" y="-26"/>
    </contour>
    <contour>
      <point x="609" y="124" type="curve" smooth="yes"/>
      <point x="464" y="124"/>
      <point x="405" y="217"/>
      <point x="405" y="320" type="curve" smooth="yes"/>
      <point x="405" y="424"/>
      <point x="454" y="515"/>
      <point x="583" y="525" type="curve" smooth="yes"/>
      <point x="750" y="517"/>
      <point x="807" y="428"/>
      <point x="807" y="316" type="curve" smooth="yes"/>
      <point x="807" y="215"/>
      <point x="746" y="124"/>
    </contour>
    <contour>
      <point x="623" y="667" type="curve"/>
      <point x="474" y="675"/>
      <point x="430" y="748"/>
      <point x="430" y="842" type="curve" smooth="yes"/>
      <point x="430" y="939"/>
      <point x="474" y="1029"/>
      <point x="605" y="1029" type="curve" smooth="yes"/>
      <point x="746" y="1029"/>
      <point x="783" y="931"/>
      <point x="783" y="846" type="curve" smooth="yes"/>
      <point x="783" y="758"/>
      <point x="744" y="678"/>
    </contour>
  </outline>
</glyph>
<glyph name="nine" format="1">
  <advance width="1154"/>
  <unicode hex="0039"/>
  <outline>
    <contour>
      <point x="545" y="-127" type="line"/>
      <point x="838" y="241" type="line" smooth="yes"/>
      <point x="969" y="406"/>
      <point x="1029" y="577"/>
      <point x="1029" y="726" type="curve" smooth="yes"/>
      <point x="1029" y="981"/>
      <point x="855" y="1174"/>
      <point x="565" y="1174" type="curve" smooth="yes"/>
      <point x="302" y="1174"/>
      <point x="137" y="1002"/>
      <point x="137" y="740" type="curve" smooth="yes"/>
      <point x="137" y="454"/>
      <point x="353" y="349"/>
      <point x="527" y="349" type="curve" smooth="yes"/>
      <point x="568" y="349"/>
      <point x="607" y="355"/>
      <point x="640" y="366" type="curve"/>
      <point x="350" y="21" type="line"/>
    </contour>
    <contour>
      <point x="581" y="539" type="curve" smooth="yes"/>
      <point x="474" y="539"/>
      <point x="404" y="622"/>
      <point x="404" y="746" type="curve" smooth="yes"/>
      <point x="404" y="880"/>
      <point x="474" y="970"/>
      <point x="581" y="970" type="curve" smooth="yes"/>
      <point x="694" y="970"/>
      <point x="770" y="884"/>
      <point x="770" y="755" type="curve" smooth="yes"/>
      <point x="770" y="625"/>
      <point x="694" y="539"/>
    </contour>
  </outline>
</glyph>
<glyph name="colon" format="1">
  <advance width="706"/>
  <unicode hex="003A"/>
  <outline>
    <contour>
      <point x="215" y="912" type="line"/>
      <point x="215" y="633" type="line"/>
      <point x="496" y="633" type="line"/>
      <point x="496" y="912" type="line"/>
    </contour>
    <contour>
      <point x="215" y="435" type="line"/>
      <point x="215" y="160" type="line"/>
      <point x="496" y="160" type="line"/>
      <point x="496" y="435" type="line"/>
    </contour>
  </outline>
</glyph>
<glyph name="semicolon" format="1">
  <advance width="624"/>
  <unicode hex="003B"/>
  <outline>
    <contour>
      <point x="172" y="-149" type="line"/>
      <point x="421" y="-143"/>
      <point x="458" y="-30"/>
      <point x="459" y="164" type="curve"/>
      <point x="459" y="439" type="line"/>
      <point x="178" y="437" type="line"/>
      <point x="178" y="160" type="line"/>
      <point x="317" y="160" type="line"/>
      <point x="317" y="40"/>
      <point x="299" y="-30"/>
      <point x="172" y="-30" type="curve"/>
    </contour>
    <contour>
      <point x="179" y="633" type="line"/>
      <point x="460" y="633" type="line"/>
      <point x="460" y="912" type="line"/>
      <point x="179" y="912" type="line"/>
    </contour>
  </outline>
</glyph>
<glyph name="less" format="1">
  <advance width="1099"/>
  <unicode hex="003C"/>
  <outline>
    <contour>
      <point x="999" y="59" type="line"/>
      <point x="999" y="250" type="line"/>
      <point x="237" y="541" type="line"/>
      <point x="999" y="826" type="line"/>
      <point x="999" y="1015" type="line"/>
      <point x="46" y="638" type="line"/>
      <point x="46" y="438" type="line"/>
    </contour>
  </outline>
</glyph>
<glyph name="equal" format="1">
  <advance width="1273"/>
  <unicode hex="003D"/>
  <outline>
    <contour>
      <point x="175" y="27" type="line"/>
      <point x="1100" y="27" type="line"/>
      <point x="1100" y="204" type="line"/>
      <point x="175" y="204" type="line"/>
    </contour>
    <contour>
      <point x="175" y="422" type="line"/>
      <point x="1100" y="422" type="line"/>
      <point x="1100" y="601" type="line"/>
      <point x="175" y="601" type="line"/>
    </contour>
  </outline>
</glyph>
<glyph name="greater" format="1">
  <advance width="1013"/>
  <unicode hex="003E"/>
  <outline>
    <contour>
      <point x="175" y="-15" type="line"/>
      <point x="1128" y="364" type="line"/>
      <point x="1128" y="564" type="line"/>
      <point x="175" y="941" type="line"/>
      <point x="175" y="752" type="line"/>
      <point x="937" y="467" type="line"/>
      <point x="175" y="176" type="line"/>
    </contour>
  </outline>
</glyph>
<glyph name="question" format="1">
  <advance width="944"/>
  <unicode hex="003F"/>
  <outline>
    <contour>
      <point x="338" y="366" type="curve"/>
      <point x="530" y="366" type="line"/>
      <point x="549" y="731"/>
      <point x="872" y="596"/>
      <point x="872" y="910" type="curve" smooth="yes"/>
      <point x="872" y="1109"/>
      <point x="708" y="1238"/>
      <point x="492" y="1238" type="curve" smooth="yes"/>
      <point x="271" y="1238"/>
      <point x="57" y="1132"/>
      <point x="84" y="814" type="curve"/>
      <point x="313" y="832" type="line"/>
      <point x="295" y="988"/>
      <point x="355" y="1072"/>
      <point x="494" y="1072" type="curve" smooth="yes"/>
      <point x="560" y="1072"/>
      <point x="642" y="1018"/>
      <point x="642" y="910" type="curve" smooth="yes"/>
      <point x="642" y="708"/>
      <point x="338" y="835"/>
    </contour>
    <contour>
      <point x="311" y="12" type="line"/>
      <point x="561" y="12" type="line"/>
      <point x="561" y="286" type="line"/>
      <point x="311" y="286" type="line"/>
    </contour>
  </outline>
</glyph>
<glyph name="at" format="1">
  <advance width="1524"/>
  <unicode hex="0040"/>
  <outline>
    <contour>
      <point x="105" y="564" type="curve" smooth="yes"/>
      <point x="105" y="242"/>
      <point x="331" y="-78"/>
      <point x="818" y="-78" type="curve" smooth="yes"/>
      <point x="1008" y="-78"/>
      <point x="1161" y="-22"/>
      <point x="1284" y="75" type="curve"/>
      <point x="1190" y="184" type="line"/>
      <point x="1091" y="102"/>
      <point x="962" y="63"/>
      <point x="818" y="63" type="curve" smooth="yes"/>
      <point x="467" y="63"/>
      <point x="274" y="264"/>
      <point x="274" y="562" type="curve" smooth="yes"/>
      <point x="274" y="888"/>
      <point x="499" y="1117"/>
      <point x="802" y="1117" type="curve" smooth="yes"/>
      <point x="1096" y="1117"/>
      <point x="1250" y="920"/>
      <point x="1250" y="709" type="curve" smooth="yes"/>
      <point x="1250" y="477"/>
      <point x="1092" y="352"/>
      <point x="1028" y="352" type="curve" smooth="yes"/>
      <point x="1014" y="352"/>
      <point x="1024" y="403"/>
      <point x="1051" y="522" type="curve"/>
      <point x="1147" y="972" type="line"/>
      <point x="973" y="972" type="line"/>
      <point x="954" y="870" type="line"/>
      <point x="915" y="949"/>
      <point x="851" y="987"/>
      <point x="770" y="987" type="curve" smooth="yes"/>
      <point x="516" y="987"/>
      <point x="385" y="750"/>
      <point x="385" y="538" type="curve" smooth="yes"/>
      <point x="385" y="323"/>
      <point x="524" y="203"/>
      <point x="673" y="203" type="curve" smooth="yes"/>
      <point x="747" y="203"/>
      <point x="818" y="229"/>
      <point x="870" y="292" type="curve"/>
      <point x="898" y="225"/>
      <point x="926" y="203"/>
      <point x="978" y="203" type="curve" smooth="yes"/>
      <point x="1265" y="203"/>
      <point x="1411" y="452"/>
      <point x="1411" y="711" type="curve" smooth="yes"/>
      <point x="1411" y="978"/>
      <point x="1228" y="1260"/>
      <point x="808" y="1260" type="curve" smooth="yes"/>
      <point x="356" y="1260"/>
      <point x="105" y="910"/>
    </contour>
    <contour>
      <point x="913" y="676" type="curve" smooth="yes"/>
      <point x="913" y="524"/>
      <point x="818" y="343"/>
      <point x="701" y="343" type="curve" smooth="yes"/>
      <point x="600" y="343"/>
      <point x="553" y="435"/>
      <point x="553" y="535" type="curve" smooth="yes"/>
      <point x="553" y="679"/>
      <point x="626" y="842"/>
      <point x="756" y="842" type="curve" smooth="yes"/>
      <point x="852" y="842"/>
      <point x="913" y="778"/>
    </contour>
  </outline>
</glyph>
<glyph name="C" format="1">
  <advance width="1390"/>
  <unicode hex="0043"/>
  <outline>
    <contour>
      <point x="80" y="577" type="curve" smooth="yes"/>
      <point x="78" y="290"/>
      <point x="252" y="-22"/>
      <point x="706" y="-26" type="curve" smooth="yes"/>
      <point x="923" y="-22"/>
      <point x="1181" y="15"/>
      <point x="1275" y="373" type="curve"/>
      <point x="1084" y="456" type="line"/>
      <point x="1041" y="233"/>
      <point x="871" y="160"/>
      <point x="747" y="160" type="curve" smooth="yes"/>
      <point x="480" y="160"/>
      <point x="345" y="348"/>
      <point x="345" y="578" type="curve" smooth="yes"/>
      <point x="345" y="820"/>
      <point x="505" y="991"/>
      <point x="748" y="991" type="curve" smooth="yes"/>
      <point x="860" y="991"/>
      <point x="993" y="948"/>
      <point x="1067" y="775" type="curve"/>
      <point x="1236" y="775" type="line"/>
      <point x="1236" y="1157" type="line"/>
      <point x="1054" y="1157" type="line"/>
      <point x="1054" y="1048" type="line"/>
      <point x="973" y="1117"/>
      <point x="853" y="1177"/>
      <point x="700" y="1177" type="curve" smooth="yes"/>
      <point x="303" y="1177"/>
      <point x="80" y="917"/>
    </contour>
    <contour>
      <point x="732" y="1277" type="move" name="top"/>
    </contour>
    <contour>
      <point x="782" y="0" type="move" name="bot"/>
    </contour>
  </outline>
</glyph>
<glyph name="D" format="1">
  <advance width="1428"/>
  <unicode hex="0044"/>
  <outline>
    <contour>
      <point x="359" y="0" type="line"/>
      <point x="710" y="0" type="line" smooth="yes"/>
      <point x="1117" y="0"/>
      <point x="1362" y="245"/>
      <point x="1362" y="613" type="curve" smooth="yes"/>
      <point x="1362" y="936"/>
      <point x="1112" y="1152"/>
      <point x="698" y="1152" type="curve" smooth="yes"/>
      <point x="359" y="1152" type="line"/>
      <point x="359" y="988" type="line"/>
      <point x="678" y="988" type="line" smooth="yes"/>
      <point x="931" y="988"/>
      <point x="1074" y="839"/>
      <point x="1074" y="615" type="curve" smooth="yes"/>
      <point x="1074" y="346"/>
      <point x="918" y="164"/>
      <point x="646" y="164" type="curve" smooth="yes"/>
      <point x="359" y="164" type="line"/>
    </contour>
    <component base="uc_main_stem" xOffset="-97"/>
    <contour>
      <point x="558" y="1152" type="move" name="top"/>
    </contour>
    <contour>
      <point x="360" y="585" type="move" name="mid"/>
    </contour>
  </outline>
</glyph>
<glyph name="E" format="1">
  <advance width="1206"/>
  <unicode hex="0045"/>
  <outline>
    <contour>
      <point x="771" y="418" type="line"/>
      <point x="874" y="418" type="line"/>
      <point x="874" y="815" type="line"/>
      <point x="770" y="815" type="line"/>
      <point x="770" y="697" type="line"/>
      <point x="381" y="697" type="line"/>
      <point x="381" y="528" type="line"/>
      <point x="771" y="528" type="line"/>
    </contour>
    <contour>
      <point x="363" y="0" type="line"/>
      <point x="1150" y="0" type="line"/>
      <point x="1150" y="382" type="line"/>
      <point x="947" y="382" type="line"/>
      <point x="947" y="166" type="line"/>
      <point x="363" y="166" type="line"/>
    </contour>
    <contour>
      <point x="945" y="790" type="line"/>
      <point x="1146" y="790" type="line"/>
      <point x="1146" y="1152" type="line"/>
      <point x="363" y="1152" type="line"/>
      <point x="363" y="985" type="line"/>
      <point x="945" y="987" type="line"/>
    </contour>
    <component base="uc_main_stem" xOffset="-97"/>
    <contour>
      <point x="645" y="1152" type="move" name="top"/>
    </contour>
    <contour>
      <point x="658" y="0" type="move" name="ogonek"/>
    </contour>
  </outline>
</glyph>
<glyph name="G" format="1">
  <advance width="1446"/>
  <unicode hex="0047"/>
  <outline>
    <contour>
      <point x="764" y="-20" type="curve" smooth="yes"/>
      <point x="1145" y="-20"/>
      <point x="1399" y="153"/>
      <point x="1407" y="633" type="curve"/>
      <point x="890" y="633" type="line"/>
      <point x="890" y="460" type="line"/>
      <point x="1135" y="460" type="line"/>
      <point x="1130" y="281"/>
      <point x="1017" y="176"/>
      <point x="783" y="166" type="curve" smooth="yes"/>
      <point x="517" y="166"/>
      <point x="371" y="323"/>
      <point x="371" y="610" type="curve" smooth="yes"/>
      <point x="371" y="858"/>
      <point x="517" y="993"/>
      <point x="782" y="993" type="curve" smooth="yes"/>
      <point x="951" y="993"/>
      <point x="1085" y="904"/>
      <point x="1152" y="738" type="curve"/>
      <point x="1338" y="738" type="line"/>
      <point x="1338" y="1159" type="line"/>
      <point x="1126" y="1159" type="line"/>
      <point x="1126" y="1046" type="line"/>
      <point x="1047" y="1115"/>
      <point x="940" y="1177"/>
      <point x="775" y="1177" type="curve" smooth="yes"/>
      <point x="368" y="1177"/>
      <point x="72" y="975"/>
      <point x="72" y="611" type="curve" smooth="yes"/>
      <point x="72" y="233"/>
      <point x="328" y="-20"/>
    </contour>
    <contour>
      <point x="758" y="1151" type="move" name="top"/>
    </contour>
    <contour>
      <point x="704" y="0" type="move" name="bot"/>
    </contour>
  </outline>
</glyph>
<glyph name="H" format="1">
  <advance width="1498"/>
  <unicode hex="0048"/>
  <outline>
    <contour>
      <point x="372" y="504" type="line"/>
      <point x="1148" y="504" type="line"/>
      <point x="1149" y="681" type="line"/>
      <point x="373" y="681" type="line"/>
    </contour>
    <component base="uc_main_stem" xOffset="695"/>
    <component base="uc_main_stem" xOffset="-97"/>
    <contour>
      <point x="770" y="1151" type="move" name="top"/>
    </contour>
    <contour>
      <point x="735" y="0" type="move" name="bot"/>
    </contour>
  </outline>
</glyph>
<glyph name="J" format="1">
  <advance width="705"/>
  <unicode hex="004A"/>
  <outline>
    <contour>
      <point x="-8" y="-302" type="line"/>
      <point x="187" y="-302" type="line" smooth="yes"/>
      <point x="476" y="-300"/>
      <point x="540" y="-137"/>
      <point x="540" y="108" type="curve" smooth="yes"/>
      <point x="540" y="988" type="line"/>
      <point x="711" y="988" type="line"/>
      <point x="711" y="1152" type="line"/>
      <point x="82" y="1152" type="line"/>
      <point x="82" y="988" type="line"/>
      <point x="265" y="988" type="line"/>
      <point x="265" y="87" type="line" smooth="yes"/>
      <point x="265" y="2"/>
      <point x="248" y="-91"/>
      <point x="122" y="-91" type="curve" smooth="yes"/>
      <point x="-8" y="-91" type="line"/>
    </contour>
    <contour>
      <point x="396" y="1152" type="move" name="top"/>
    </contour>
  </outline>
</glyph>
<glyph name="L" format="1">
  <advance width="1163"/>
  <unicode hex="004C"/>
  <outline>
    <contour>
      <point x="355" y="0" type="line"/>
      <point x="1113" y="0" type="line"/>
      <point x="1113" y="560" type="line"/>
      <point x="898" y="560" type="line"/>
      <point x="898" y="166" type="line"/>
      <point x="355" y="166" type="line"/>
    </contour>
    <component base="uc_main_stem" xOffset="-101"/>
    <contour>
      <point x="909" y="1151" type="move" name="top"/>
    </contour>
    <contour>
      <point x="542" y="0" type="move" name="bot"/>
    </contour>
  </outline>
</glyph>
<glyph name="N" format="1">
  <advance width="1511"/>
  <unicode hex="004E"/>
  <outline>
    <contour>
      <point x="939" y="1151" type="line"/>
      <point x="939" y="987" type="line"/>
      <point x="1112" y="987" type="line"/>
      <point x="1112" y="367" type="line"/>
      <point x="530" y="1151" type="line"/>
      <point x="40" y="1151" type="line"/>
      <point x="40" y="987" type="line"/>
      <point x="217" y="987" type="line"/>
      <point x="217" y="166" type="line"/>
      <point x="40" y="166" type="line"/>
      <point x="40" y="0" type="line"/>
      <point x="580" y="0" type="line"/>
      <point x="580" y="166" type="line"/>
      <point x="409" y="166" type="line"/>
      <point x="409" y="889" type="line"/>
      <point x="1057" y="0" type="line"/>
      <point x="1306" y="0" type="line"/>
      <point x="1306" y="987" type="line"/>
      <point x="1489" y="987" type="line"/>
      <point x="1489" y="1151" type="line"/>
    </contour>
    <contour>
      <point x="754" y="1151" type="move" name="top"/>
    </contour>
    <contour>
      <point x="727" y="0" type="move" name="bot"/>
    </contour>
  </outline>
</glyph>
<glyph name="O" format="1">
  <advance width="1510"/>
  <unicode hex="004F"/>
  <outline>
    <contour>
      <point x="753" y="180" type="curve" smooth="yes"/>
      <point x="531" y="180"/>
      <point x="392" y="331"/>
      <point x="392" y="571" type="curve" smooth="yes"/>
      <point x="392" y="818"/>
      <point x="531" y="973"/>
      <point x="753" y="972" type="curve" smooth="yes"/>
      <point x="975" y="973"/>
      <point x="1114" y="818"/>
      <point x="1114" y="571" type="curve" smooth="yes"/>
      <point x="1114" y="331"/>
      <point x="975" y="180"/>
    </contour>
    <contour>
      <point x="753" y="-22" type="curve" smooth="yes"/>
      <point x="1152" y="-22"/>
      <point x="1402" y="207"/>
      <point x="1402" y="571" type="curve" smooth="yes"/>
      <point x="1402" y="941"/>
      <point x="1152" y="1174"/>
      <point x="753" y="1174" type="curve" smooth="yes"/>
      <point x="354" y="1174"/>
      <point x="104" y="941"/>
      <point x="104" y="571" type="curve" smooth="yes"/>
      <point x="104" y="205"/>
      <point x="354" y="-24"/>
    </contour>
    <contour>
      <point x="750" y="1151" type="move" name="top"/>
    </contour>
    <contour>
      <point x="911" y="0" type="move" name="ogonek"/>
    </contour>
  </outline>
</glyph>
<glyph name="Q" format="1">
  <advance width="1493"/>
  <unicode hex="0051"/>
  <outline>
    <contour>
      <point x="923" y="-346"/>
      <point x="1158" y="-346" type="curve" smooth="yes"/>
      <point x="1225" y="-346"/>
      <point x="1295" y="-336"/>
      <point x="1369" y="-317" type="curve"/>
      <point x="1322" y="-115" type="line"/>
      <point x="1278" y="-126"/>
      <point x="1236" y="-131"/>
      <point x="1197" y="-131" type="curve" smooth="yes"/>
      <point x="1041" y="-131"/>
      <point x="917" y="-53"/>
      <point x="860" y="63" type="curve"/>
      <point x="588" y="64" type="line"/>
      <point x="731" y="-225"/>
    </contour>
    <component base="O"/>
  </outline>
</glyph>
<glyph name="S" format="1">
  <advance width="929"/>
  <unicode hex="0053"/>
  <outline>
    <contour>
      <point x="49" y="862" type="curve" smooth="yes"/>
      <point x="49" y="628"/>
      <point x="218" y="530"/>
      <point x="491" y="494" type="curve" smooth="yes"/>
      <point x="670" y="471"/>
      <point x="682" y="405"/>
      <point x="682" y="318" type="curve" smooth="yes"/>
      <point x="682" y="240"/>
      <point x="653" y="160"/>
      <point x="533" y="160" type="curve" smooth="yes"/>
      <point x="420" y="160"/>
      <point x="286" y="228"/>
      <point x="264" y="271" type="curve"/>
      <point x="264" y="393" type="line"/>
      <point x="57" y="393" type="line"/>
      <point x="57" y="-2" type="line"/>
      <point x="264" y="-2" type="line"/>
      <point x="264" y="87" type="line"/>
      <point x="351" y="28"/>
      <point x="429" y="-20"/>
      <point x="539" y="-20" type="curve" smooth="yes"/>
      <point x="748" y="-20"/>
      <point x="939" y="109"/>
      <point x="939" y="333" type="curve" smooth="yes"/>
      <point x="939" y="575"/>
      <point x="813" y="661"/>
      <point x="534" y="705" type="curve" smooth="yes"/>
      <point x="336" y="735"/>
      <point x="283" y="787"/>
      <point x="283" y="881" type="curve" smooth="yes"/>
      <point x="283" y="942"/>
      <point x="330" y="1001"/>
      <point x="469" y="1001" type="curve" smooth="yes"/>
      <point x="555" y="1001"/>
      <point x="597" y="995"/>
      <point x="670" y="916" type="curve"/>
      <point x="670" y="822" type="line"/>
      <point x="873" y="822" type="line"/>
      <point x="873" y="1161" type="line"/>
      <point x="670" y="1161" type="line"/>
      <point x="670" y="1087" type="line"/>
      <point x="616" y="1146"/>
      <point x="532" y="1177"/>
      <point x="445" y="1177" type="curve" smooth="yes"/>
      <point x="207" y="1177"/>
      <point x="49" y="1079"/>
    </contour>
    <contour>
      <point x="476" y="1151" type="move" name="top"/>
    </contour>
    <contour>
      <point x="523" y="-2" type="move" name="bot"/>
    </contour>
  </outline>
</glyph>
<glyph name="T" format="1">
  <advance width="1123"/>
  <unicode hex="0054"/>
  <outline>
    <contour>
      <point x="-3" y="674" type="line"/>
      <point x="188" y="674" type="line"/>
      <point x="188" y="988" type="line"/>
      <point x="937" y="988" type="line"/>
      <point x="937" y="674" type="line"/>
      <point x="1126" y="674" type="line"/>
      <point x="1126" y="1152" type="line"/>
      <point x="-3" y="1152" type="line"/>
    </contour>
    <component base="uc_main_stem" xOffset="114"/>
    <contour>
      <point x="553" y="1152" type="move" name="top"/>
    </contour>
    <contour>
      <point x="563" y="0" type="move" name="bot"/>
    </contour>
  </outline>
</glyph>
<glyph name="W" format="1">
  <advance width="1841"/>
  <unicode hex="0057"/>
  <outline>
    <contour>
      <point x="467" y="0" type="line"/>
      <point x="671" y="0" type="line"/>
      <point x="925" y="683" type="line"/>
      <point x="1180" y="0" type="line"/>
      <point x="1390" y="0" type="line"/>
      <point x="1677" y="987" type="line"/>
      <point x="1819" y="987" type="line"/>
      <point x="1819" y="1151" type="line"/>
      <point x="1324" y="1151" type="line"/>
      <point x="1324" y="987" type="line"/>
      <point x="1482" y="987" type="line"/>
      <point x="1305" y="354" type="line"/>
      <point x="1003" y="1196" type="line"/>
      <point x="888" y="1196" type="line"/>
      <point x="594" y="354" type="line"/>
      <point x="420" y="987" type="line"/>
      <point x="569" y="987" type="line"/>
      <point x="569" y="1151" type="line"/>
      <point x="22" y="1151" type="line"/>
      <point x="22" y="987" type="line"/>
      <point x="169" y="987" type="line"/>
    </contour>
    <contour>
      <point x="946" y="1152" type="move" name="top"/>
    </contour>
  </outline>
</glyph>
<glyph name="X" format="1">
  <advance width="1397"/>
  <unicode hex="0058"/>
  <outline>
    <contour>
      <point x="34" y="0" type="line"/>
      <point x="580" y="0" type="line"/>
      <point x="580" y="150" type="line"/>
      <point x="442" y="150" type="line"/>
      <point x="663" y="472" type="line"/>
      <point x="885" y="150" type="line"/>
      <point x="746" y="150" type="line"/>
      <point x="746" y="0" type="line"/>
      <point x="1363" y="0" type="line"/>
      <point x="1363" y="150" type="line"/>
      <point x="1183" y="150" type="line"/>
      <point x="840" y="597" type="line"/>
      <point x="1157" y="1003" type="line"/>
      <point x="1328" y="1003" type="line"/>
      <point x="1328" y="1151" type="line"/>
      <point x="798" y="1151" type="line"/>
      <point x="798" y="1003" type="line"/>
      <point x="928" y="1003" type="line"/>
      <point x="724" y="717" type="line"/>
      <point x="513" y="1003" type="line"/>
      <point x="644" y="1003" type="line"/>
      <point x="644" y="1151" type="line"/>
      <point x="49" y="1151" type="line"/>
      <point x="49" y="1003" type="line"/>
      <point x="217" y="1003" type="line"/>
      <point x="541" y="592" type="line"/>
      <point x="211" y="150" type="line"/>
      <point x="34" y="150" type="line"/>
    </contour>
  </outline>
</glyph>
<glyph name="Y" format="1">
  <advance width="1358"/>
  <unicode hex="0059"/>
  <outline>
    <contour>
      <point x="367" y="0" type="line"/>
      <point x="996" y="0" type="line"/>
      <point x="996" y="166" type="line"/>
      <point x="818" y="166" type="line"/>
      <point x="818" y="490" type="line"/>
      <point x="1171" y="988" type="line"/>
      <point x="1333" y="988" type="line"/>
      <point x="1333" y="1152" type="line"/>
      <point x="805" y="1152" type="line"/>
      <point x="805" y="988" type="line"/>
      <point x="939" y="988" type="line"/>
      <point x="710" y="644" type="line"/>
      <point x="468" y="988" type="line"/>
      <point x="604" y="988" type="line"/>
      <point x="604" y="1152" type="line"/>
      <point x="17" y="1152" type="line"/>
      <point x="17" y="988" type="line"/>
      <point x="172" y="988" type="line"/>
      <point x="542" y="488" type="line"/>
      <point x="542" y="166" type="line"/>
      <point x="367" y="166" type="line"/>
    </contour>
    <contour>
      <point x="684" y="1151" type="move" name="top"/>
    </contour>
  </outline>
</glyph>
<glyph name="Z" format="1">
  <advance width="1141"/>
  <unicode hex="005A"/>
  <outline>
    <contour>
      <point x="127" y="1151" type="line"/>
      <point x="127" y="698" type="line"/>
      <point x="316" y="698" type="line"/>
      <point x="316" y="987" type="line"/>
      <point x="764" y="987" type="line"/>
      <point x="93" y="174" type="line"/>
      <point x="93" y="0" type="line"/>
      <point x="1107" y="0" type="line"/>
      <point x="1107" y="497" type="line"/>
      <point x="920" y="497" type="line"/>
      <point x="920" y="166" type="line"/>
      <point x="418" y="166" type="line"/>
      <point x="1097" y="995" type="line"/>
      <point x="1097" y="1151" type="line"/>
    </contour>
    <contour>
      <point x="608" y="1151" type="move" name="top"/>
    </contour>
  </outline>
</glyph>
<glyph name="bracketleft" format="1">
  <advance width="807"/>
  <unicode hex="005B"/>
  <outline>
    <contour>
      <point x="203" y="-201" type="line"/>
      <point x="625" y="-201" type="line"/>
      <point x="625" y="-10" type="line"/>
      <point x="486" y="-10" type="line"/>
      <point x="486" y="1085" type="line"/>
      <point x="625" y="1085" type="line"/>
      <point x="625" y="1274" type="line"/>
      <point x="203" y="1274" type="line"/>
    </contour>
  </outline>
</glyph>
<glyph name="bracketright" format="1">
  <advance width="805"/>
  <unicode hex="005D"/>
  <outline>
    <contour>
      <point x="178" y="-201" type="line"/>
      <point x="602" y="-201" type="line"/>
      <point x="602" y="1274" type="line"/>
      <point x="178" y="1274" type="line"/>
      <point x="178" y="1110" type="line"/>
      <point x="359" y="1110" type="line"/>
      <point x="359" y="-37" type="line"/>
      <point x="178" y="-37" type="line"/>
    </contour>
  </outline>
</glyph>
<glyph name="underscore" format="1">
  <advance width="1682"/>
  <unicode hex="005F"/>
  <outline>
    <contour>
      <point x="350" y="-75" type="line"/>
      <point x="1334" y="-75" type="line"/>
      <point x="1334" y="20" type="line"/>
      <point x="350" y="20" type="line"/>
    </contour>
  </outline>
</glyph>
<glyph name="grave" format="1">
  <advance width="252"/>
  <unicode hex="0060"/>
  <outline>
    <contour>
      <point x="127" y="864" type="line"/>
      <point x="272" y="864" type="line"/>
      <point x="173" y="1169" type="line"/>
      <point x="-50" y="1169" type="line"/>
    </contour>
    <contour>
      <point x="215" y="803" type="move" name="_top"/>
    </contour>
  </outline>
</glyph>
<glyph name="a" format="1">
  <advance width="931"/>
  <unicode hex="0061"/>
  <outline>
    <contour>
      <point x="20" y="715" type="curve"/>
      <point x="87" y="568" type="line"/>
      <point x="171" y="629"/>
      <point x="321" y="653"/>
      <point x="392" y="653" type="curve" smooth="yes"/>
      <point x="495" y="653"/>
      <point x="548" y="599"/>
      <point x="548" y="490" type="curve" smooth="yes"/>
      <point x="548" y="456" type="line"/>
      <point x="484" y="469"/>
      <point x="431" y="478"/>
      <point x="370" y="478" type="curve" smooth="yes"/>
      <point x="186" y="478"/>
      <point x="10" y="403"/>
      <point x="10" y="228" type="curve" smooth="yes"/>
      <point x="10" y="105"/>
      <point x="105" y="-26"/>
      <point x="307" y="-26" type="curve" smooth="yes"/>
      <point x="413" y="-26"/>
      <point x="411" y="-11"/>
      <point x="553" y="73" type="curve"/>
      <point x="553" y="73"/>
      <point x="569" y="-21"/>
      <point x="569" y="0" type="curve"/>
      <point x="913" y="0" type="line"/>
      <point x="913" y="156" type="line"/>
      <point x="792" y="156" type="line"/>
      <point x="792" y="523" type="line" smooth="yes"/>
      <point x="792" y="723"/>
      <point x="629" y="826"/>
      <point x="404" y="826" type="curve" smooth="yes"/>
      <point x="278" y="826"/>
      <point x="107" y="791"/>
    </contour>
    <contour>
      <point x="548" y="326" type="curve"/>
      <point x="548" y="198" type="line"/>
      <point x="479" y="147"/>
      <point x="399" y="117"/>
      <point x="350" y="117" type="curve" smooth="yes"/>
      <point x="281" y="117"/>
      <point x="242" y="163"/>
      <point x="242" y="226" type="curve" smooth="yes"/>
      <point x="242" y="320"/>
      <point x="332" y="344"/>
      <point x="374" y="344" type="curve" smooth="yes"/>
      <point x="447" y="344"/>
      <point x="474" y="329"/>
    </contour>
    <contour>
      <point x="417" y="894" type="move" name="top"/>
    </contour>
    <contour>
      <point x="714" y="0" type="move" name="ogonek"/>
    </contour>
  </outline>
</glyph>
<glyph name="c" format="1">
  <advance width="989"/>
  <unicode hex="0063"/>
  <outline>
    <contour>
      <point x="745" y="814" type="line"/>
      <point x="743" y="705" type="line"/>
      <point x="710" y="783"/>
      <point x="607" y="825"/>
      <point x="490" y="825" type="curve" smooth="yes"/>
      <point x="286" y="825"/>
      <point x="40" y="699"/>
      <point x="40" y="419" type="curve" smooth="yes"/>
      <point x="40" y="148"/>
      <point x="223" y="-22"/>
      <point x="515" y="-22" type="curve" smooth="yes"/>
      <point x="672" y="-22"/>
      <point x="826" y="57"/>
      <point x="914" y="183" type="curve"/>
      <point x="809" y="315" type="line"/>
      <point x="717" y="205"/>
      <point x="645" y="167"/>
      <point x="529" y="167" type="curve" smooth="yes"/>
      <point x="386" y="167"/>
      <point x="296" y="263"/>
      <point x="296" y="419" type="curve" smooth="yes"/>
      <point x="296" y="560"/>
      <point x="393" y="649"/>
      <point x="548" y="649" type="curve" smooth="yes"/>
      <point x="668" y="649"/>
      <point x="752" y="583"/>
      <point x="772" y="473" type="curve"/>
      <point x="930" y="473" type="line"/>
      <point x="930" y="814" type="line"/>
    </contour>
    <contour>
      <point x="539" y="803" type="move" name="top"/>
    </contour>
    <contour>
      <point x="535" y="0" type="move" name="bot"/>
    </contour>
  </outline>
</glyph>
<glyph name="f" format="1">
  <advance width="791"/>
  <unicode hex="0066"/>
  <outline>
    <contour>
      <point x="86" y="0" type="line"/>
      <point x="699" y="0" type="line"/>
      <point x="699" y="164" type="line"/>
      <point x="495" y="164" type="line"/>
      <point x="495" y="640" type="line"/>
      <point x="692" y="640" type="line"/>
      <point x="692" y="804" type="line"/>
      <point x="495" y="804" type="line"/>
      <point x="495" y="994" type="line" smooth="yes"/>
      <point x="495" y="1102"/>
      <point x="520" y="1131"/>
      <point x="561" y="1131" type="curve" smooth="yes"/>
      <point x="606" y="1131"/>
      <point x="638" y="1083"/>
      <point x="644" y="995" type="curve"/>
      <point x="840" y="1042" type="line"/>
      <point x="842" y="1197"/>
      <point x="732" y="1295"/>
      <point x="556" y="1295" type="curve" smooth="yes"/>
      <point x="369" y="1295"/>
      <point x="251" y="1173"/>
      <point x="251" y="979" type="curve" smooth="yes"/>
      <point x="251" y="804" type="line"/>
      <point x="66" y="804" type="line"/>
      <point x="66" y="640" type="line"/>
      <point x="251" y="640" type="line"/>
      <point x="251" y="164" type="line"/>
      <point x="86" y="164" type="line"/>
    </contour>
  </outline>
</glyph>
<glyph name="g" format="1">
  <advance width="1073"/>
  <unicode hex="0067"/>
  <outline>
    <contour>
      <point x="698" y="804" type="line"/>
      <point x="700" y="-3" type="line" smooth="yes"/>
      <point x="700" y="-146"/>
      <point x="602" y="-236"/>
      <point x="447" y="-236" type="curve" smooth="yes"/>
      <point x="379" y="-236"/>
      <point x="271" y="-218"/>
      <point x="165" y="-189" type="curve"/>
      <point x="119" y="-377" type="line"/>
      <point x="222" y="-409"/>
      <point x="350" y="-429"/>
      <point x="451" y="-429" type="curve" smooth="yes"/>
      <point x="754" y="-429"/>
      <point x="944" y="-267"/>
      <point x="944" y="-9" type="curve" smooth="yes"/>
      <point x="944" y="640" type="line"/>
      <point x="1063" y="640" type="line"/>
      <point x="1063" y="804" type="line"/>
    </contour>
    <component base="lc_bowl_left" xOffset="-133" yOffset="15" yScale="0.98"/>
    <contour>
      <point x="449" y="803" type="move" name="top"/>
    </contour>
  </outline>
</glyph>
<glyph name="h" format="1">
  <advance width="1149"/>
  <unicode hex="0068"/>
  <outline>
    <component base="lc_xheight_curved_stem" xOffset="-145"/>
    <component base="lc_ascender_stem" xOffset="-118"/>
    <contour>
      <point x="665" y="1165" type="move" name="top"/>
    </contour>
    <contour>
      <point x="289" y="920" type="move" name="mid"/>
    </contour>
  </outline>
</glyph>
<glyph name="i" format="1">
  <advance width="552"/>
  <unicode hex="0069"/>
  <outline>
    <contour>
      <point x="50" y="0" type="line"/>
      <point x="540" y="0" type="line"/>
      <point x="540" y="164" type="line"/>
      <point x="423" y="164" type="line"/>
      <point x="423" y="644.857" type="line"/>
      <point x="423" y="804" type="line"/>
      <point x="53" y="804" type="line"/>
      <point x="53" y="640" type="line"/>
      <point x="179" y="640" type="line"/>
      <point x="179" y="164" type="line"/>
      <point x="50" y="164" type="line"/>
    </contour>
    <contour>
      <point x="299" y="970" type="curve" smooth="yes"/>
      <point x="398" y="970"/>
      <point x="460" y="1027"/>
      <point x="460" y="1119" type="curve" smooth="yes"/>
      <point x="460" y="1209"/>
      <point x="398" y="1267"/>
      <point x="299" y="1267" type="curve"/>
      <point x="204" y="1267"/>
      <point x="145" y="1209"/>
      <point x="145" y="1119" type="curve" smooth="yes"/>
      <point x="145" y="1027"/>
      <point x="204" y="970"/>
    </contour>
    <contour>
      <point x="281" y="0" type="move" name="ogonek"/>
    </contour>
  </outline>
</glyph>
<glyph name="l" format="1">
  <advance width="566"/>
  <unicode hex="006C"/>
  <outline>
    <component base="lc_ascender_stem" xOffset="-108"/>
    <contour>
      <point x="291" y="1152" type="move" name="top"/>
    </contour>
    <contour>
      <point x="271" y="0" type="move" name="bot"/>
    </contour>
    <contour>
      <point x="671" y="706" type="move" name="mid"/>
    </contour>
  </outline>
</glyph>
<glyph name="o" format="1">
  <advance width="987"/>
  <unicode hex="006F"/>
  <outline>
    <contour>
      <point x="492" y="158" type="curve" smooth="yes"/>
      <point x="368" y="157"/>
      <point x="294" y="249"/>
      <point x="294" y="405" type="curve" smooth="yes"/>
      <point x="294" y="556"/>
      <point x="368" y="646"/>
      <point x="492" y="646" type="curve" smooth="yes"/>
      <point x="616" y="646"/>
      <point x="689" y="556"/>
      <point x="689" y="405" type="curve" smooth="yes"/>
      <point x="689" y="249"/>
      <point x="616" y="157"/>
    </contour>
    <contour>
      <point x="492" y="-22" type="curve" smooth="yes"/>
      <point x="765" y="-22"/>
      <point x="947" y="149"/>
      <point x="947" y="405" type="curve" smooth="yes"/>
      <point x="947" y="658"/>
      <point x="765" y="826"/>
      <point x="492" y="826" type="curve" smooth="yes"/>
      <point x="221" y="826"/>
      <point x="40" y="658"/>
      <point x="40" y="405" type="curve" smooth="yes"/>
      <point x="40" y="149"/>
      <point x="221" y="-22"/>
    </contour>
    <contour>
      <point x="490" y="804" type="move" name="top"/>
    </contour>
  </outline>
</glyph>
<glyph name="s" format="1">
  <advance width="884"/>
  <unicode hex="0073"/>
  <outline>
    <contour>
      <point x="514" y="-21" type="curve" smooth="yes"/>
      <point x="671" y="-21"/>
      <point x="820" y="56"/>
      <point x="820" y="238" type="curve" smooth="yes"/>
      <point x="820" y="411"/>
      <point x="706" y="446"/>
      <point x="558" y="481" type="curve" smooth="yes"/>
      <point x="455" y="505" type="line" smooth="yes"/>
      <point x="338" y="532"/>
      <point x="328" y="558"/>
      <point x="328" y="599" type="curve" smooth="yes"/>
      <point x="328" y="644"/>
      <point x="377" y="674"/>
      <point x="439" y="674" type="curve" smooth="yes"/>
      <point x="520" y="674"/>
      <point x="615" y="653"/>
      <point x="630" y="588" type="curve" smooth="yes"/>
      <point x="648" y="509" type="line"/>
      <point x="809" y="509" type="line"/>
      <point x="809" y="804" type="line"/>
      <point x="634" y="804" type="line"/>
      <point x="634" y="742" type="line"/>
      <point x="589" y="796"/>
      <point x="490" y="825"/>
      <point x="393" y="825" type="curve" smooth="yes"/>
      <point x="172" y="825"/>
      <point x="76" y="707"/>
      <point x="76" y="574" type="curve" smooth="yes"/>
      <point x="76" y="413"/>
      <point x="174" y="351"/>
      <point x="347" y="310" type="curve" smooth="yes"/>
      <point x="462" y="283" type="line" smooth="yes"/>
      <point x="537" y="265"/>
      <point x="580" y="252"/>
      <point x="580" y="206" type="curve" smooth="yes"/>
      <point x="580" y="158"/>
      <point x="541" y="135"/>
      <point x="465" y="135" type="curve" smooth="yes"/>
      <point x="380" y="135"/>
      <point x="265" y="163"/>
      <point x="252" y="217" type="curve" smooth="yes"/>
      <point x="235" y="284" type="line"/>
      <point x="90" y="284" type="line"/>
      <point x="90" y="0" type="line"/>
      <point x="261" y="0" type="line"/>
      <point x="261" y="58" type="line"/>
      <point x="312" y="2"/>
      <point x="401" y="-21"/>
    </contour>
    <contour>
      <point x="412" y="804" type="move" name="top"/>
    </contour>
    <contour>
      <point x="466" y="0" type="move" name="bot"/>
    </contour>
  </outline>
</glyph>
<glyph name="t" format="1">
  <advance width="659"/>
  <unicode hex="0074"/>
  <outline>
    <contour>
      <point x="426" y="0" type="curve" smooth="yes"/>
      <point x="643" y="0" type="line"/>
      <point x="643" y="166" type="line"/>
      <point x="484" y="166" type="line" smooth="yes"/>
      <point x="427" y="166"/>
      <point x="403" y="213"/>
      <point x="403" y="269" type="curve" smooth="yes"/>
      <point x="403" y="640" type="line"/>
      <point x="617" y="640" type="line"/>
      <point x="617" y="804" type="line"/>
      <point x="403" y="804" type="line"/>
      <point x="403" y="1177" type="line"/>
      <point x="163" y="1152" type="line"/>
      <point x="163" y="804" type="line"/>
      <point x="36" y="804" type="line"/>
      <point x="36" y="640" type="line"/>
      <point x="159" y="640" type="line"/>
      <point x="159" y="226" type="line" smooth="yes"/>
      <point x="159" y="113"/>
      <point x="209" y="0"/>
    </contour>
    <contour>
      <point x="412" y="0" type="move" name="bot"/>
    </contour>
  </outline>
</glyph>
<glyph name="u" format="1">
  <advance width="1155"/>
  <unicode hex="0075"/>
  <outline>
    <contour>
      <point x="425" y="-20" type="curve" smooth="yes"/>
      <point x="525" y="-20"/>
      <point x="617" y="23"/>
      <point x="706" y="92" type="curve"/>
      <point x="709" y="0" type="line"/>
      <point x="1081" y="0" type="line"/>
      <point x="1081" y="166" type="line"/>
      <point x="950" y="166" type="line"/>
      <point x="950" y="804" type="line"/>
      <point x="572" y="804" type="line"/>
      <point x="572" y="640" type="line"/>
      <point x="706" y="640" type="line"/>
      <point x="706" y="227" type="line"/>
      <point x="644" y="180"/>
      <point x="569" y="152"/>
      <point x="505" y="152" type="curve" smooth="yes"/>
      <point x="429" y="152"/>
      <point x="380" y="213"/>
      <point x="380" y="316" type="curve" smooth="yes"/>
      <point x="380" y="804" type="line"/>
      <point x="16" y="804" type="line"/>
      <point x="16" y="640" type="line"/>
      <point x="136" y="640" type="line"/>
      <point x="136" y="277" type="line" smooth="yes"/>
      <point x="136" y="95"/>
      <point x="236" y="-20"/>
    </contour>
    <contour>
      <point x="505" y="804" type="move" name="top"/>
    </contour>
    <contour>
      <point x="888" y="0" type="move" name="ogonek"/>
    </contour>
  </outline>
</glyph>
<glyph name="v" format="1">
  <advance width="1086"/>
  <unicode hex="0076"/>
  <outline>
    <contour>
      <point x="640" y="804" type="line"/>
      <point x="640" y="640" type="line"/>
      <point x="752" y="640" type="line"/>
      <point x="570" y="256" type="line"/>
      <point x="404" y="640" type="line"/>
      <point x="506" y="640" type="line"/>
      <point x="506" y="804" type="line"/>
      <point x="0" y="804" type="line"/>
      <point x="0" y="640" type="line"/>
      <point x="128" y="640" type="line"/>
      <point x="427" y="0" type="line"/>
      <point x="649" y="0" type="line"/>
      <point x="961" y="640" type="line"/>
      <point x="1086" y="640" type="line"/>
      <point x="1086" y="804" type="line"/>
    </contour>
  </outline>
</glyph>
<glyph name="z" format="1">
  <advance width="930"/>
  <unicode hex="007A"/>
  <outline>
    <contour>
      <point x="85" y="0" type="line"/>
      <point x="871" y="0" type="line"/>
      <point x="871" y="320" type="line"/>
      <point x="697" y="320" type="line"/>
      <point x="697" y="150" type="line"/>
      <point x="365" y="150" type="line"/>
      <point x="874" y="648" type="line"/>
      <point x="874" y="804" type="line"/>
      <point x="86" y="804" type="line"/>
      <point x="86" y="498" type="line"/>
      <point x="257" y="498" type="line"/>
      <point x="257" y="652" type="line"/>
      <point x="588" y="652" type="line"/>
      <point x="85" y="154" type="line"/>
    </contour>
    <contour>
      <point x="508" y="804" type="move" name="top"/>
    </contour>
  </outline>
</glyph>
<glyph name="braceleft" format="1">
  <advance width="761"/>
  <unicode hex="007B"/>
  <outline>
    <contour>
      <point x="606" y="1406" type="line"/>
      <point x="293" y="1406"/>
      <point x="297" y="1204"/>
      <point x="297" y="943" type="curve" smooth="yes"/>
      <point x="297" y="775"/>
      <point x="258" y="650"/>
      <point x="120" y="650" type="curve"/>
      <point x="120" y="475" type="line"/>
      <point x="271" y="475"/>
      <point x="297" y="345"/>
      <point x="297" y="157" type="curve" smooth="yes"/>
      <point x="297" y="-94"/>
      <point x="298" y="-283"/>
      <point x="607" y="-283" type="curve" smooth="yes"/>
      <point x="698" y="-283" type="line"/>
      <point x="698" y="-108" type="line"/>
      <point x="488" y="-108"/>
      <point x="505" y="-82"/>
      <point x="505" y="166" type="curve" smooth="yes"/>
      <point x="505" y="398"/>
      <point x="466" y="474"/>
      <point x="352" y="562" type="curve"/>
      <point x="492" y="662"/>
      <point x="508" y="740"/>
      <point x="508" y="1066" type="curve" smooth="yes"/>
      <point x="508" y="1210"/>
      <point x="541" y="1232"/>
      <point x="698" y="1232" type="curve"/>
      <point x="698" y="1406" type="line"/>
    </contour>
  </outline>
</glyph>
<glyph name="bar" format="1">
  <advance width="608"/>
  <unicode hex="007C"/>
  <outline>
    <contour>
      <point x="209" y="1301" type="line"/>
      <point x="209" y="-406" type="line"/>
      <point x="407" y="-406" type="line"/>
      <point x="407" y="1301" type="line"/>
    </contour>
  </outline>
</glyph>
<glyph name="braceright" format="1">
  <advance width="762"/>
  <unicode hex="007D"/>
  <outline>
    <contour>
      <point x="140" y="1406" type="line"/>
      <point x="140" y="1232" type="line"/>
      <point x="298" y="1232"/>
      <point x="331" y="1210"/>
      <point x="331" y="1066" type="curve" smooth="yes"/>
      <point x="331" y="740"/>
      <point x="347" y="662"/>
      <point x="488" y="562" type="curve"/>
      <point x="370" y="473"/>
      <point x="334" y="395"/>
      <point x="334" y="155" type="curve" smooth="yes"/>
      <point x="334" y="-84"/>
      <point x="348" y="-108"/>
      <point x="140" y="-108" type="curve"/>
      <point x="140" y="-283" type="line"/>
      <point x="232" y="-283" type="line" smooth="yes"/>
      <point x="541" y="-283"/>
      <point x="542" y="-94"/>
      <point x="542" y="183" type="curve" smooth="yes"/>
      <point x="542" y="347"/>
      <point x="572" y="475"/>
      <point x="718" y="475" type="curve"/>
      <point x="718" y="650" type="line"/>
      <point x="574" y="650"/>
      <point x="542" y="781"/>
      <point x="542" y="935" type="curve" smooth="yes"/>
      <point x="542" y="1209"/>
      <point x="543" y="1406"/>
      <point x="234" y="1406" type="curve" smooth="yes"/>
    </contour>
  </outline>
</glyph>
<glyph name="asciitilde" format="1">
  <advance width="1378"/>
  <unicode hex="007E"/>
  <outline>
    <contour>
      <point x="902" y="481" type="curve" smooth="yes"/>
      <point x="1009" y="481"/>
      <point x="1101" y="531"/>
      <point x="1183" y="603" type="curve"/>
      <point x="1192" y="811" type="line"/>
      <point x="1103" y="733"/>
      <point x="1017" y="687"/>
      <point x="919" y="687" type="curve" smooth="yes"/>
      <point x="822" y="687"/>
      <point x="632" y="805"/>
      <point x="465" y="805" type="curve" smooth="yes"/>
      <point x="352" y="805"/>
      <point x="264" y="764"/>
      <point x="187" y="681" type="curve"/>
      <point x="178" y="482" type="line"/>
      <point x="278" y="573"/>
      <point x="348" y="616"/>
      <point x="446" y="616" type="curve" smooth="yes"/>
      <point x="566" y="616"/>
      <point x="756" y="481"/>
    </contour>
  </outline>
</glyph>
<glyph name="cent" format="1">
  <advance width="1039"/>
  <unicode hex="00A2"/>
  <outline>
    <contour>
      <point x="320" y="-350" type="line"/>
      <point x="428" y="-6" type="line"/>
      <point x="464" y="-14"/>
      <point x="507" y="-19"/>
      <point x="556" y="-19" type="curve" smooth="yes"/>
      <point x="758" y="-19"/>
      <point x="896" y="66"/>
      <point x="979" y="221" type="curve"/>
      <point x="802" y="302" type="line"/>
      <point x="749" y="215"/>
      <point x="645" y="167"/>
      <point x="558" y="167" type="curve" smooth="yes"/>
      <point x="531" y="167"/>
      <point x="509" y="169"/>
      <point x="487" y="176" type="curve"/>
      <point x="655" y="706" type="line"/>
      <point x="715" y="675"/>
      <point x="750" y="615"/>
      <point x="769" y="553" type="curve"/>
      <point x="954" y="553" type="line"/>
      <point x="954" y="893" type="line"/>
      <point x="761" y="893" type="line"/>
      <point x="759" y="825" type="line"/>
      <point x="738" y="837"/>
      <point x="718" y="850"/>
      <point x="703" y="859" type="curve"/>
      <point x="828" y="1253" type="line"/>
      <point x="747" y="1283" type="line"/>
      <point x="625" y="894" type="line"/>
      <point x="590" y="905"/>
      <point x="561" y="912"/>
      <point x="537" y="912" type="curve" smooth="yes"/>
      <point x="260" y="912"/>
      <point x="61" y="714"/>
      <point x="61" y="446" type="curve" smooth="yes"/>
      <point x="61" y="290"/>
      <point x="135" y="101"/>
      <point x="346" y="17" type="curve"/>
      <point x="240" y="-321" type="line"/>
    </contour>
    <contour>
      <point x="411" y="214" type="line"/>
      <point x="349" y="261"/>
      <point x="314" y="355"/>
      <point x="314" y="472" type="curve" smooth="yes"/>
      <point x="314" y="625"/>
      <point x="418" y="728"/>
      <point x="555" y="728" type="curve" smooth="yes"/>
      <point x="560" y="728"/>
      <point x="566" y="727"/>
      <point x="571" y="728" type="curve"/>
    </contour>
  </outline>
</glyph>
<glyph name="sterling" format="1">
  <advance width="1051"/>
  <unicode hex="00A3"/>
  <outline>
    <contour>
      <point x="287" y="-19" type="curve" smooth="yes"/>
      <point x="353" y="-19"/>
      <point x="432" y="27"/>
      <point x="483" y="95" type="curve"/>
      <point x="569" y="28"/>
      <point x="650" y="-19"/>
      <point x="746" y="-19" type="curve" smooth="yes"/>
      <point x="943" y="-19"/>
      <point x="1016" y="93"/>
      <point x="1020" y="299" type="curve" smooth="yes"/>
      <point x="1020" y="325" type="line"/>
      <point x="873" y="325" type="line"/>
      <point x="873" y="202"/>
      <point x="827" y="158"/>
      <point x="764" y="158" type="curve" smooth="yes"/>
      <point x="712" y="158"/>
      <point x="648" y="188"/>
      <point x="589" y="229" type="curve"/>
      <point x="613" y="287"/>
      <point x="625" y="342"/>
      <point x="625" y="396" type="curve" smooth="yes"/>
      <point x="625" y="450"/>
      <point x="613" y="504"/>
      <point x="586" y="559" type="curve"/>
      <point x="881" y="559" type="line"/>
      <point x="881" y="692" type="line"/>
      <point x="525" y="692" type="line"/>
      <point x="481" y="779"/>
      <point x="451" y="866"/>
      <point x="451" y="910" type="curve" smooth="yes"/>
      <point x="451" y="994"/>
      <point x="518" y="1050"/>
      <point x="619" y="1050" type="curve" smooth="yes"/>
      <point x="709" y="1050"/>
      <point x="762" y="991"/>
      <point x="762" y="890" type="curve"/>
      <point x="953" y="890" type="line"/>
      <point x="953" y="1106"/>
      <point x="826" y="1233"/>
      <point x="612" y="1233" type="curve" smooth="yes"/>
      <point x="371" y="1233"/>
      <point x="211" y="1104"/>
      <point x="211" y="911" type="curve" smooth="yes"/>
      <point x="211" y="851"/>
      <point x="235" y="763"/>
      <point x="272" y="692" type="curve"/>
      <point x="143" y="692" type="line"/>
      <point x="143" y="559" type="line"/>
      <point x="345" y="559" type="line"/>
      <point x="407" y="482"/>
      <point x="448" y="391"/>
      <point x="448" y="331" type="curve" smooth="yes"/>
      <point x="448" y="322"/>
      <point x="447" y="314"/>
      <point x="445" y="309" type="curve"/>
      <point x="445" y="308" type="line"/>
      <point x="399" y="350"/>
      <point x="330" y="378"/>
      <point x="272" y="378" type="curve" smooth="yes"/>
      <point x="145" y="378"/>
      <point x="61" y="294"/>
      <point x="61" y="168" type="curve" smooth="yes"/>
      <point x="61" y="56"/>
      <point x="151" y="-19"/>
    </contour>
    <contour>
      <point x="275" y="104" type="curve" smooth="yes"/>
      <point x="237" y="104"/>
      <point x="212" y="131"/>
      <point x="212" y="171" type="curve" smooth="yes"/>
      <point x="212" y="208"/>
      <point x="242" y="232"/>
      <point x="286" y="232" type="curve" smooth="yes"/>
      <point x="314" y="232"/>
      <point x="358" y="212"/>
      <point x="396" y="181" type="curve"/>
      <point x="375" y="135"/>
      <point x="327" y="104"/>
    </contour>
  </outline>
</glyph>
<glyph name="yen" format="1">
  <advance width="1347"/>
  <unicode hex="00A5"/>
  <outline>
    <contour>
      <point x="282" y="283" type="line"/>
      <point x="1068" y="283" type="line"/>
      <point x="1068" y="402" type="line"/>
      <point x="282" y="402" type="line"/>
    </contour>
    <contour>
      <point x="282" y="473" type="line"/>
      <point x="1068" y="473" type="line"/>
      <point x="1068" y="592" type="line"/>
      <point x="282" y="592" type="line"/>
    </contour>
    <component base="Y"/>
  </outline>
</glyph>
<glyph name="ordfeminine" format="1">
  <advance width="719"/>
  <unicode hex="00AA"/>
  <outline>
    <contour>
      <point x="60" y="1034" type="curve"/>
      <point x="196" y="976" type="line"/>
      <point x="225" y="1027"/>
      <point x="272" y="1056"/>
      <point x="335" y="1056" type="curve" smooth="yes"/>
      <point x="427" y="1056"/>
      <point x="484" y="1011"/>
      <point x="484" y="940" type="curve" smooth="yes"/>
      <point x="484" y="855" type="line"/>
      <point x="425" y="882"/>
      <point x="362" y="897"/>
      <point x="305" y="897" type="curve" smooth="yes"/>
      <point x="144" y="897"/>
      <point x="38" y="810"/>
      <point x="38" y="677" type="curve" smooth="yes"/>
      <point x="38" y="563"/>
      <point x="144" y="473"/>
      <point x="276" y="473" type="curve" smooth="yes"/>
      <point x="355" y="473"/>
      <point x="426" y="501"/>
      <point x="501" y="569" type="curve"/>
      <point x="497" y="488" type="line"/>
      <point x="755" y="488" type="line"/>
      <point x="755" y="610" type="line"/>
      <point x="635" y="610" type="line"/>
      <point x="635" y="953" type="line" smooth="yes"/>
      <point x="635" y="1121"/>
      <point x="505" y="1174"/>
      <point x="357" y="1174" type="curve" smooth="yes"/>
      <point x="217" y="1174"/>
      <point x="117" y="1124"/>
    </contour>
    <contour>
      <point x="484" y="749" type="curve"/>
      <point x="484" y="658" type="line"/>
      <point x="435" y="613"/>
      <point x="361" y="580"/>
      <point x="302" y="580" type="curve" smooth="yes"/>
      <point x="236" y="580"/>
      <point x="187" y="616"/>
      <point x="187" y="679" type="curve" smooth="yes"/>
      <point x="187" y="754"/>
      <point x="242" y="796"/>
      <point x="318" y="796" type="curve" smooth="yes"/>
      <point x="374" y="796"/>
      <point x="428" y="774"/>
    </contour>
  </outline>
</glyph>
<glyph name="guillemotleft" format="1">
  <advance width="1042"/>
  <unicode hex="00AB"/>
  <outline>
    <contour>
      <point x="876" y="923" type="line"/>
      <point x="543" y="496" type="line"/>
      <point x="876" y="74" type="line"/>
      <point x="1068" y="74" type="line"/>
      <point x="864" y="498" type="line"/>
      <point x="1068" y="923" type="line"/>
    </contour>
    <contour>
      <point x="346" y="923" type="line"/>
      <point x="12" y="496" type="line"/>
      <point x="346" y="74" type="line"/>
      <point x="538" y="74" type="line"/>
      <point x="333" y="498" type="line"/>
      <point x="538" y="923" type="line"/>
    </contour>
  </outline>
</glyph>
<glyph name="degree" format="1">
  <advance width="653"/>
  <unicode hex="00B0"/>
  <outline>
    <contour>
      <point x="328" y="777" type="curve" smooth="yes"/>
      <point x="217" y="777"/>
      <point x="152" y="848"/>
      <point x="152" y="967" type="curve"/>
      <point x="153" y="1086"/>
      <point x="217" y="1156"/>
      <point x="325" y="1156" type="curve" smooth="yes"/>
      <point x="437" y="1156"/>
      <point x="503" y="1087"/>
      <point x="503" y="969" type="curve" smooth="yes"/>
      <point x="503" y="848"/>
      <point x="438" y="777"/>
    </contour>
    <contour>
      <point x="327" y="703" type="curve" smooth="yes"/>
      <point x="488" y="704"/>
      <point x="595" y="809"/>
      <point x="595" y="966" type="curve" smooth="yes"/>
      <point x="595" y="1123"/>
      <point x="488" y="1227"/>
      <point x="327" y="1227" type="curve" smooth="yes"/>
      <point x="167" y="1227"/>
      <point x="60" y="1123"/>
      <point x="60" y="966" type="curve" smooth="yes"/>
      <point x="60" y="808"/>
      <point x="167" y="703"/>
    </contour>
  </outline>
</glyph>
<glyph name="plusminus" format="1">
  <advance width="815"/>
  <unicode hex="00B1"/>
  <outline>
    <contour>
      <point x="322" y="1171" type="line"/>
      <point x="322" y="817" type="line"/>
      <point x="-31" y="817" type="line"/>
      <point x="-31" y="646" type="line"/>
      <point x="322" y="646" type="line"/>
      <point x="322" y="293" type="line"/>
      <point x="493" y="293" type="line"/>
      <point x="493" y="646" type="line"/>
      <point x="848" y="646" type="line"/>
      <point x="848" y="817" type="line"/>
      <point x="493" y="817" type="line"/>
      <point x="493" y="1171" type="line"/>
    </contour>
    <contour>
      <point x="-31" y="169" type="line"/>
      <point x="-31" y="0" type="line"/>
      <point x="848" y="0" type="line"/>
      <point x="848" y="169" type="line"/>
    </contour>
  </outline>
</glyph>
<glyph name="twosuperior" format="1">
  <advance width="988"/>
  <unicode hex="00B2"/>
  <outline>
    <contour>
      <point x="175" y="1067" type="curve" smooth="yes"/>
      <point x="175" y="1033"/>
      <point x="181" y="997"/>
      <point x="193" y="960" type="curve"/>
      <point x="363" y="960" type="line"/>
      <point x="357" y="1006"/>
      <point x="351" y="1044"/>
      <point x="351" y="1049" type="curve" smooth="yes"/>
      <point x="351" y="1128"/>
      <point x="412" y="1183"/>
      <point x="494" y="1183" type="curve" smooth="yes"/>
      <point x="532" y="1183"/>
      <point x="598" y="1155"/>
      <point x="601" y="1077" type="curve" smooth="yes"/>
      <point x="603" y="1038"/>
      <point x="583" y="958"/>
      <point x="457" y="848" type="curve" smooth="yes"/>
      <point x="190" y="619" type="line"/>
      <point x="190" y="455" type="line"/>
      <point x="806" y="455" type="line"/>
      <point x="804" y="747" type="line"/>
      <point x="654" y="747" type="line"/>
      <point x="653" y="615" type="line"/>
      <point x="417" y="615" type="line"/>
      <point x="578" y="747" type="line" smooth="yes"/>
      <point x="684" y="835"/>
      <point x="782" y="951"/>
      <point x="782" y="1079" type="curve" smooth="yes"/>
      <point x="782" y="1235"/>
      <point x="681" y="1335"/>
      <point x="492" y="1335" type="curve" smooth="yes"/>
      <point x="295" y="1335"/>
      <point x="175" y="1222"/>
    </contour>
  </outline>
</glyph>
<glyph name="threesuperior" format="1">
  <advance width="864"/>
  <unicode hex="00B3"/>
  <outline>
    <contour>
      <point x="434" y="436" type="curve" smooth="yes"/>
      <point x="613" y="436"/>
      <point x="718" y="526"/>
      <point x="718" y="677" type="curve" smooth="yes"/>
      <point x="718" y="778"/>
      <point x="657" y="853"/>
      <point x="553" y="878" type="curve"/>
      <point x="640" y="904"/>
      <point x="692" y="971"/>
      <point x="692" y="1059" type="curve" smooth="yes"/>
      <point x="692" y="1197"/>
      <point x="593" y="1278"/>
      <point x="425" y="1278" type="curve" smooth="yes"/>
      <point x="272" y="1278"/>
      <point x="179" y="1196"/>
      <point x="174" y="1057" type="curve"/>
      <point x="294" y="1050" type="line"/>
      <point x="297" y="1128"/>
      <point x="346" y="1174"/>
      <point x="426" y="1174" type="curve" smooth="yes"/>
      <point x="511" y="1174"/>
      <point x="561" y="1129"/>
      <point x="561" y="1053" type="curve" smooth="yes"/>
      <point x="561" y="959"/>
      <point x="508" y="926"/>
      <point x="356" y="926" type="curve"/>
      <point x="356" y="822" type="line"/>
      <point x="528" y="822"/>
      <point x="587" y="785"/>
      <point x="587" y="678" type="curve" smooth="yes"/>
      <point x="587" y="591"/>
      <point x="531" y="540"/>
      <point x="435" y="540" type="curve" smooth="yes"/>
      <point x="343" y="540"/>
      <point x="284" y="597"/>
      <point x="275" y="693" type="curve"/>
      <point x="153" y="692" type="line"/>
      <point x="157" y="531"/>
      <point x="261" y="436"/>
    </contour>
  </outline>
</glyph>
<glyph name="acute" format="1">
  <advance width="596"/>
  <unicode hex="00B4"/>
  <outline>
    <contour>
      <point x="302" y="1169" type="line"/>
      <point x="203" y="864" type="line"/>
      <point x="348" y="864" type="line"/>
      <point x="525" y="1169" type="line"/>
    </contour>
    <contour>
      <point x="272" y="804" type="move" name="_top"/>
    </contour>
  </outline>
</glyph>
<glyph name="uni00B5" format="1">
  <advance width="1455"/>
  <unicode hex="00B5"/>
  <outline>
    <contour>
      <point x="362" y="-344" type="line"/>
      <point x="611" y="-344" type="line"/>
      <point x="611" y="-20" type="line"/>
      <point x="611" y="-13"/>
      <point x="629" y="-11"/>
      <point x="653" y="-11" type="curve" smooth="yes"/>
      <point x="766" y="-11"/>
      <point x="880" y="17"/>
      <point x="925" y="92" type="curve"/>
      <point x="928" y="0" type="line"/>
      <point x="1318" y="0" type="line"/>
      <point x="1318" y="166" type="line"/>
      <point x="1170" y="166" type="line"/>
      <point x="1170" y="893" type="line"/>
      <point x="788" y="893" type="line"/>
      <point x="788" y="729" type="line"/>
      <point x="925" y="729" type="line"/>
      <point x="925" y="268" type="line"/>
      <point x="870" y="217"/>
      <point x="793" y="167"/>
      <point x="721" y="167" type="curve" smooth="yes"/>
      <point x="637" y="167"/>
      <point x="604" y="199"/>
      <point x="604" y="180" type="curve" smooth="yes"/>
      <point x="604" y="893" type="line"/>
      <point x="228" y="893" type="line"/>
      <point x="228" y="729" type="line"/>
      <point x="362" y="729" type="line"/>
    </contour>
  </outline>
</glyph>
<glyph name="paragraph" format="1">
  <advance width="1210"/>
  <unicode hex="00B6"/>
  <outline>
    <contour>
      <point x="442" y="0" type="line"/>
      <point x="1166" y="0" type="line"/>
      <point x="1166" y="164" type="line"/>
      <point x="991" y="164" type="line"/>
      <point x="991" y="1012" type="line"/>
      <point x="1129" y="1012" type="line"/>
      <point x="1129" y="1152" type="line"/>
      <point x="553" y="1152" type="line"/>
      <point x="214" y="1152"/>
      <point x="132" y="961"/>
      <point x="132" y="791" type="curve" smooth="yes"/>
      <point x="132" y="614"/>
      <point x="254" y="428"/>
      <point x="501" y="434" type="curve" smooth="yes"/>
      <point x="758" y="434" type="line"/>
      <point x="758" y="164" type="line"/>
      <point x="442" y="164" type="line"/>
    </contour>
    <contour>
      <point x="557" y="595" type="line"/>
      <point x="557" y="1012" type="line"/>
      <point x="758" y="1012" type="line"/>
      <point x="758" y="596" type="line"/>
    </contour>
  </outline>
</glyph>
<glyph name="periodcentered" format="1">
  <advance width="734"/>
  <unicode hex="00B7"/>
  <outline>
    <contour>
      <point x="264" y="657" type="line"/>
      <point x="264" y="446" type="line"/>
      <point x="491" y="446" type="line"/>
      <point x="491" y="657" type="line"/>
    </contour>
    <contour>
      <point x="390" y="562" type="move" name="_mid"/>
    </contour>
  </outline>
</glyph>
<glyph name="onesuperior" format="1">
  <advance width="826"/>
  <unicode hex="00B9"/>
  <outline>
    <contour>
      <point x="223" y="452" type="line"/>
      <point x="651" y="452" type="line"/>
      <point x="651" y="555" type="line"/>
      <point x="508" y="555" type="line"/>
      <point x="508" y="1256" type="line"/>
      <point x="225" y="1256" type="line"/>
      <point x="225" y="1153" type="line"/>
      <point x="377" y="1153" type="line"/>
      <point x="377" y="555" type="line" smooth="yes"/>
      <point x="223" y="555" type="line"/>
    </contour>
  </outline>
</glyph>
<glyph name="guillemotright" format="1">
  <advance width="1042"/>
  <unicode hex="00BB"/>
  <outline>
    <contour>
      <point x="-27" y="74" type="line"/>
      <point x="166" y="74" type="line"/>
      <point x="499" y="496" type="line"/>
      <point x="166" y="923" type="line"/>
      <point x="-27" y="923" type="line"/>
      <point x="178" y="498" type="line"/>
    </contour>
    <contour>
      <point x="505" y="74" type="line"/>
      <point x="697" y="74" type="line"/>
      <point x="1030" y="496" type="line"/>
      <point x="697" y="923" type="line"/>
      <point x="505" y="923" type="line"/>
      <point x="709" y="498" type="line"/>
    </contour>
  </outline>
</glyph>
<glyph name="onehalf" format="1">
  <advance width="600"/>
  <unicode hex="00BD"/>
  <outline>
    <contour>
      <point x="1309" y="1152" type="line"/>
      <point x="522" y="0" type="line"/>
      <point x="653" y="0" type="line"/>
      <point x="1437" y="1152" type="line"/>
    </contour>
    <contour>
      <point x="170" y="1152" type="line"/>
      <point x="170" y="1049" type="line"/>
      <point x="322" y="1049" type="line"/>
      <point x="322" y="451" type="line" smooth="yes"/>
      <point x="168" y="451" type="line"/>
      <point x="168" y="348" type="line"/>
      <point x="596" y="348" type="line"/>
      <point x="596" y="451" type="line"/>
      <point x="453" y="451" type="line"/>
      <point x="453" y="1152" type="line"/>
    </contour>
    <contour>
      <point x="1395" y="824"/>
      <point x="1268" y="737"/>
      <point x="1268" y="577" type="curve" smooth="yes"/>
      <point x="1268" y="576"/>
      <point x="1268" y="575"/>
      <point x="1268" y="575" type="curve" smooth="yes"/>
      <point x="1268" y="545"/>
      <point x="1273" y="512"/>
      <point x="1284" y="477" type="curve"/>
      <point x="1405" y="477" type="line"/>
      <point x="1394" y="512"/>
      <point x="1389" y="543"/>
      <point x="1389" y="570" type="curve" smooth="yes"/>
      <point x="1389" y="676"/>
      <point x="1445" y="725"/>
      <point x="1556" y="725" type="curve" smooth="yes"/>
      <point x="1623" y="725"/>
      <point x="1712" y="708"/>
      <point x="1712" y="588" type="curve" smooth="yes"/>
      <point x="1712" y="538"/>
      <point x="1689" y="484"/>
      <point x="1613" y="414" type="curve" smooth="yes"/>
      <point x="1280" y="107" type="line"/>
      <point x="1282" y="0" type="line"/>
      <point x="1814" y="0" type="line"/>
      <point x="1811" y="107" type="line"/>
      <point x="1438" y="107" type="line"/>
      <point x="1692" y="332" type="line" smooth="yes"/>
      <point x="1792" y="421"/>
      <point x="1836" y="509"/>
      <point x="1836" y="587" type="curve" smooth="yes"/>
      <point x="1836" y="677"/>
      <point x="1780" y="824"/>
      <point x="1562" y="824" type="curve" smooth="yes"/>
    </contour>
  </outline>
</glyph>
<glyph name="threequarters" format="1">
  <advance width="1986"/>
  <unicode hex="00BE"/>
  <outline>
    <contour>
      <point x="407" y="332" type="curve" smooth="yes"/>
      <point x="586" y="332"/>
      <point x="691" y="422"/>
      <point x="691" y="573" type="curve" smooth="yes"/>
      <point x="691" y="674"/>
      <point x="630" y="749"/>
      <point x="526" y="774" type="curve"/>
      <point x="613" y="800"/>
      <point x="665" y="867"/>
      <point x="665" y="955" type="curve" smooth="yes"/>
      <point x="665" y="1093"/>
      <point x="566" y="1174"/>
      <point x="398" y="1174" type="curve" smooth="yes"/>
      <point x="245" y="1174"/>
      <point x="152" y="1092"/>
      <point x="147" y="953" type="curve"/>
      <point x="267" y="946" type="line"/>
      <point x="270" y="1024"/>
      <point x="319" y="1070"/>
      <point x="399" y="1070" type="curve" smooth="yes"/>
      <point x="484" y="1070"/>
      <point x="534" y="1025"/>
      <point x="534" y="949" type="curve" smooth="yes"/>
      <point x="534" y="855"/>
      <point x="481" y="822"/>
      <point x="329" y="822" type="curve"/>
      <point x="329" y="718" type="line"/>
      <point x="501" y="718"/>
      <point x="560" y="681"/>
      <point x="560" y="574" type="curve" smooth="yes"/>
      <point x="560" y="487"/>
      <point x="504" y="436"/>
      <point x="408" y="436" type="curve" smooth="yes"/>
      <point x="316" y="436"/>
      <point x="257" y="493"/>
      <point x="248" y="589" type="curve"/>
      <point x="126" y="588" type="line"/>
      <point x="130" y="427"/>
      <point x="234" y="332"/>
    </contour>
    <contour>
      <point x="1419" y="0" type="line"/>
      <point x="1790" y="0" type="line"/>
      <point x="1790" y="76" type="line"/>
      <point x="1673" y="76" type="line"/>
      <point x="1673" y="215" type="line"/>
      <point x="1797" y="215" type="line"/>
      <point x="1797" y="315" type="line"/>
      <point x="1673" y="315" type="line"/>
      <point x="1673" y="804" type="line"/>
      <point x="1536" y="804" type="line"/>
      <point x="1181" y="333" type="line"/>
      <point x="1181" y="215" type="line"/>
      <point x="1547" y="215" type="line"/>
      <point x="1547" y="76" type="line"/>
      <point x="1419" y="76" type="line"/>
    </contour>
    <contour>
      <point x="571" y="0" type="line"/>
      <point x="702" y="0" type="line"/>
      <point x="1486" y="1152" type="line"/>
      <point x="1358" y="1152" type="line"/>
    </contour>
    <contour>
      <point x="1294" y="315" type="line"/>
      <point x="1547" y="664" type="line"/>
      <point x="1547" y="315" type="line"/>
    </contour>
  </outline>
</glyph>
<glyph name="AE" format="1">
  <advance width="2021"/>
  <unicode hex="00C6"/>
  <outline>
    <contour>
      <point x="1" y="0" type="line"/>
      <point x="572" y="0" type="line"/>
      <point x="561" y="166" type="line"/>
      <point x="437" y="166" type="line"/>
      <point x="655" y="402" type="line"/>
      <point x="968" y="402" type="line"/>
      <point x="894" y="166" type="line"/>
      <point x="758" y="166" type="line"/>
      <point x="770" y="0" type="line"/>
      <point x="1853" y="0" type="line"/>
      <point x="1931" y="382" type="line"/>
      <point x="1728" y="382" type="line"/>
      <point x="1676" y="166" type="line"/>
      <point x="1167" y="166" type="line"/>
      <point x="1274" y="500" type="line"/>
      <point x="1573" y="500" type="line"/>
      <point x="1534" y="412" type="line"/>
      <point x="1640" y="412" type="line"/>
      <point x="1725" y="809" type="line"/>
      <point x="1618" y="809" type="line"/>
      <point x="1594" y="691" type="line"/>
      <point x="1296" y="691" type="line"/>
      <point x="1387" y="987" type="line"/>
      <point x="1872" y="987" type="line"/>
      <point x="1821" y="776" type="line"/>
      <point x="2021" y="776" type="line"/>
      <point x="2097" y="1151" type="line"/>
      <point x="744" y="1151" type="line"/>
      <point x="760" y="987" type="line"/>
      <point x="894" y="987" type="line"/>
      <point x="149" y="166" type="line"/>
      <point x="-10" y="166" type="line"/>
    </contour>
    <contour>
      <point x="738" y="543" type="line"/>
      <point x="997" y="543" type="line"/>
      <point x="1115" y="987" type="line"/>
      <point x="1135" y="987" type="line"/>
    </contour>
  </outline>
</glyph>
<glyph name="multiply" format="1">
  <advance width="929"/>
  <unicode hex="00D7"/>
  <outline>
    <contour>
      <point x="465" y="635" type="line"/>
      <point x="175" y="917" type="line"/>
      <point x="88" y="830" type="line"/>
      <point x="378" y="546" type="line"/>
      <point x="78" y="257" type="line"/>
      <point x="160" y="175" type="line"/>
      <point x="459" y="464" type="line"/>
      <point x="751" y="183" type="line"/>
      <point x="837" y="271" type="line"/>
      <point x="548" y="552" type="line"/>
      <point x="847" y="842" type="line"/>
      <point x="766" y="925" type="line"/>
    </contour>
  </outline>
</glyph>
<glyph name="Oslash" format="1">
  <advance width="1557"/>
  <unicode hex="00D8"/>
  <outline>
    <contour>
      <point x="439" y="-77" type="line"/>
      <point x="1407" y="1165" type="line"/>
      <point x="1293" y="1246" type="line"/>
      <point x="325" y="4" type="line"/>
    </contour>
    <component base="O" xOffset="20" yOffset="-25"/>
  </outline>
</glyph>
<glyph name="germandbls" format="1">
  <advance width="1172"/>
  <unicode hex="00DF"/>
  <outline>
    <contour>
      <point x="14" y="0" type="line"/>
      <point x="557" y="0" type="line"/>
      <point x="557" y="166" type="line"/>
      <point x="456" y="166" type="line"/>
      <point x="456" y="866" type="line" smooth="yes"/>
      <point x="456" y="1011"/>
      <point x="524" y="1103"/>
      <point x="632" y="1103" type="curve" smooth="yes"/>
      <point x="724" y="1103"/>
      <point x="780" y="1051"/>
      <point x="780" y="966" type="curve" smooth="yes"/>
      <point x="780" y="850"/>
      <point x="705" y="777"/>
      <point x="583" y="777" type="curve"/>
      <point x="583" y="603" type="line"/>
      <point x="762" y="601"/>
      <point x="874" y="519"/>
      <point x="875" y="390" type="curve" smooth="yes"/>
      <point x="875" y="253"/>
      <point x="775" y="166"/>
      <point x="619" y="166" type="curve"/>
      <point x="619" y="0" type="line"/>
      <point x="1010" y="0"/>
      <point x="1228" y="204"/>
      <point x="1182" y="528" type="curve" smooth="yes"/>
      <point x="1101" y="600"/>
      <point x="981" y="673"/>
      <point x="870" y="715" type="curve"/>
      <point x="975" y="767"/>
      <point x="1041" y="867"/>
      <point x="1041" y="973" type="curve"/>
      <point x="1042" y="1172"/>
      <point x="889" y="1295"/>
      <point x="643" y="1295" type="curve" smooth="yes"/>
      <point x="352" y="1295"/>
      <point x="170" y="1128"/>
      <point x="170" y="862" type="curve" smooth="yes"/>
      <point x="170" y="166" type="line"/>
      <point x="14" y="166" type="line"/>
    </contour>
  </outline>
</glyph>
<glyph name="ae" format="1">
  <advance width="1496"/>
  <unicode hex="00E6"/>
  <outline>
    <contour>
      <point x="826" y="214" type="curve"/>
      <point x="826" y="523" type="line" smooth="yes"/>
      <point x="826" y="722"/>
      <point x="705" y="826"/>
      <point x="473" y="826" type="curve" smooth="yes"/>
      <point x="352" y="826"/>
      <point x="218" y="793"/>
      <point x="84" y="731" type="curve"/>
      <point x="144" y="573" type="line"/>
      <point x="266" y="619"/>
      <point x="364" y="643"/>
      <point x="429" y="643" type="curve" smooth="yes"/>
      <point x="530" y="643"/>
      <point x="582" y="591"/>
      <point x="582" y="490" type="curve" smooth="yes"/>
      <point x="582" y="458" type="line"/>
      <point x="541" y="471"/>
      <point x="485" y="478"/>
      <point x="419" y="478" type="curve" smooth="yes"/>
      <point x="187" y="478"/>
      <point x="66" y="392"/>
      <point x="66" y="228" type="curve" smooth="yes"/>
      <point x="66" y="-103"/>
      <point x="687" y="-97"/>
    </contour>
    <contour>
      <point x="303" y="241" type="curve" smooth="yes"/>
      <point x="303" y="308"/>
      <point x="348" y="348"/>
      <point x="425" y="348" type="curve" smooth="yes"/>
      <point x="464" y="348"/>
      <point x="633" y="343"/>
      <point x="692" y="335" type="curve"/>
      <point x="692" y="144"/>
      <point x="303" y="64"/>
    </contour>
    <component base="e" xOffset="543"/>
    <contour>
      <point x="747" y="804" type="move" name="top"/>
    </contour>
  </outline>
</glyph>
<glyph name="eth" format="1">
  <advance width="1038"/>
  <unicode hex="00F0"/>
  <outline>
    <contour>
      <point x="240" y="1276" type="line"/>
      <point x="416" y="1133"/>
      <point x="685" y="903"/>
      <point x="711" y="774" type="curve"/>
      <point x="764" y="711"/>
      <point x="716" y="793"/>
      <point x="513" y="793" type="curve" smooth="yes"/>
      <point x="310" y="793"/>
      <point x="125" y="623"/>
      <point x="125" y="443" type="curve" smooth="yes"/>
      <point x="125" y="177"/>
      <point x="248" y="-16"/>
      <point x="543" y="-16" type="curve" smooth="yes"/>
      <point x="815" y="-16"/>
      <point x="989" y="183"/>
      <point x="989" y="423" type="curve" smooth="yes"/>
      <point x="989" y="1066"/>
      <point x="512" y="1251"/>
      <point x="345" y="1410" type="curve"/>
    </contour>
    <contour>
      <point x="766" y="429" type="curve" smooth="yes"/>
      <point x="766" y="318"/>
      <point x="743" y="168"/>
      <point x="547" y="168" type="curve" smooth="yes"/>
      <point x="413" y="168"/>
      <point x="350" y="287"/>
      <point x="350" y="421" type="curve" smooth="yes"/>
      <point x="350" y="546"/>
      <point x="407" y="630"/>
      <point x="529" y="630" type="curve" smooth="yes"/>
      <point x="650" y="630"/>
      <point x="766" y="582"/>
    </contour>
    <contour>
      <point x="255" y="1012" type="line"/>
      <point x="322" y="870" type="line"/>
      <point x="945" y="1160" type="line"/>
      <point x="878" y="1300" type="line"/>
    </contour>
  </outline>
</glyph>
<glyph name="divide" format="1">
  <advance width="1219"/>
  <unicode hex="00F7"/>
  <outline>
    <contour>
      <point x="497" y="161" type="line"/>
      <point x="718" y="161" type="line"/>
      <point x="718" y="373" type="line"/>
      <point x="497" y="373" type="line"/>
    </contour>
    <contour>
      <point x="132" y="515" type="line"/>
      <point x="1087" y="515" type="line"/>
      <point x="1087" y="633" type="line"/>
      <point x="132" y="633" type="line"/>
    </contour>
    <contour>
      <point x="497" y="768" type="line"/>
      <point x="718" y="768" type="line"/>
      <point x="718" y="982" type="line"/>
      <point x="497" y="982" type="line"/>
    </contour>
  </outline>
</glyph>
<glyph name="oslash" format="1">
  <advance width="983"/>
  <unicode hex="00F8"/>
  <outline>
    <contour>
      <point x="286" y="-126" type="line"/>
      <point x="803" y="883" type="line"/>
      <point x="709" y="926" type="line"/>
      <point x="192" y="-83" type="line"/>
    </contour>
    <component base="o"/>
  </outline>
</glyph>
<glyph name="thorn" format="1">
  <advance width="1244"/>
  <unicode hex="00FE"/>
  <outline>
    <contour>
      <point x="29" y="1151" type="line"/>
      <point x="29" y="987" type="line"/>
      <point x="180" y="987" type="line"/>
      <point x="180" y="-193" type="line"/>
      <point x="38" y="-193" type="line"/>
      <point x="38" y="-357" type="line"/>
      <point x="426" y="-357" type="line"/>
      <point x="425" y="1151" type="line"/>
    </contour>
    <component base="lc_bowl_right" xOffset="88" yOffset="21"/>
  </outline>
</glyph>
<glyph name="Lslash" format="1">
  <advance width="1394"/>
  <unicode hex="0141"/>
  <outline>
    <contour>
      <point x="144" y="354" type="line"/>
      <point x="779" y="683" type="line"/>
      <point x="779" y="826" type="line"/>
      <point x="144" y="483" type="line"/>
    </contour>
    <component base="L"/>
  </outline>
</glyph>
<glyph name="lslash" format="1">
  <advance width="589"/>
  <unicode hex="0142"/>
  <outline>
    <contour>
      <point x="57" y="502" type="line"/>
      <point x="57" y="313" type="line"/>
      <point x="601" y="587" type="line"/>
      <point x="601" y="783" type="line"/>
    </contour>
  </outline>
</glyph>
<glyph name="oe" format="1">
  <advance width="1719"/>
  <unicode hex="0153"/>
  <outline>
    <contour>
      <point x="861" y="686" type="curve"/>
      <point x="776" y="792"/>
      <point x="658" y="832"/>
      <point x="541" y="832" type="curve" smooth="yes"/>
      <point x="285" y="832"/>
      <point x="109" y="647"/>
      <point x="108" y="396" type="curve" smooth="yes"/>
      <point x="108" y="155"/>
      <point x="272" y="-26"/>
      <point x="539" y="-26" type="curve" smooth="yes"/>
      <point x="672" y="-26"/>
      <point x="787" y="35"/>
      <point x="856" y="104" type="curve"/>
      <point x="942" y="14"/>
      <point x="1066" y="-26"/>
      <point x="1200" y="-26" type="curve" smooth="yes"/>
      <point x="1359" y="-26"/>
      <point x="1493" y="26"/>
      <point x="1559" y="95" type="curve"/>
      <point x="1455" y="217" type="line"/>
      <point x="1375" y="161"/>
      <point x="1290" y="137"/>
      <point x="1217" y="137" type="curve" smooth="yes"/>
      <point x="1045" y="137"/>
      <point x="983" y="237"/>
      <point x="973" y="355" type="curve"/>
      <point x="1579" y="355" type="line"/>
      <point x="1580" y="611"/>
      <point x="1465" y="832"/>
      <point x="1193" y="832" type="curve" smooth="yes"/>
      <point x="1070" y="832"/>
      <point x="952" y="796"/>
    </contour>
    <contour>
      <point x="741" y="397" type="curve" smooth="yes"/>
      <point x="741" y="241"/>
      <point x="666" y="144"/>
      <point x="541" y="145" type="curve" smooth="yes"/>
      <point x="413" y="144"/>
      <point x="339" y="240"/>
      <point x="339" y="397" type="curve" smooth="yes"/>
      <point x="339" y="555"/>
      <point x="410" y="652"/>
      <point x="539" y="652" type="curve" smooth="yes"/>
      <point x="667" y="652"/>
      <point x="741" y="554"/>
    </contour>
    <contour>
      <point x="1361" y="479" type="curve"/>
      <point x="975" y="479" type="line"/>
      <point x="994" y="587"/>
      <point x="1052" y="670"/>
      <point x="1182" y="670" type="curve" smooth="yes"/>
      <point x="1300" y="670"/>
      <point x="1343" y="590"/>
    </contour>
  </outline>
</glyph>
<glyph name="circumflex" format="1">
  <advance width="643"/>
  <unicode hex="02C6"/>
  <outline>
    <contour>
      <point x="4" y="932" type="line"/>
      <point x="211" y="932" type="line"/>
      <point x="320" y="1206" type="line"/>
      <point x="429" y="932" type="line"/>
      <point x="641" y="932" type="line"/>
      <point x="465" y="1315" type="line"/>
      <point x="174" y="1315" type="line"/>
    </contour>
    <contour>
      <point x="330" y="804" type="move" name="_top"/>
    </contour>
  </outline>
</glyph>
<glyph name="caron" format="1">
  <advance width="579"/>
  <unicode hex="02C7"/>
  <outline>
    <contour>
      <point x="192" y="912" type="line"/>
      <point x="388" y="912" type="line"/>
      <point x="547" y="1171" type="line"/>
      <point x="443" y="1171" type="line"/>
      <point x="291" y="1017" type="line"/>
      <point x="137" y="1171" type="line"/>
      <point x="30" y="1171" type="line"/>
    </contour>
    <contour>
      <point x="281" y="803" type="move" name="_top"/>
    </contour>
  </outline>
</glyph>
<glyph name="uni02C9" format="1">
  <advance width="600"/>
  <unicode hex="02C9"/>
  <outline>
    <contour>
      <point x="65" y="1085" type="line"/>
      <point x="65" y="931" type="line"/>
      <point x="528" y="931" type="line"/>
      <point x="528" y="1085" type="line"/>
    </contour>
  </outline>
</glyph>
<glyph name="breve" format="1">
  <advance width="566"/>
  <unicode hex="02D8"/>
  <outline>
    <contour>
      <point x="282" y="890" type="curve" smooth="yes"/>
      <point x="429" y="890"/>
      <point x="542" y="993"/>
      <point x="558" y="1155" type="curve"/>
      <point x="417" y="1155" type="line"/>
      <point x="407" y="1074"/>
      <point x="363" y="1021"/>
      <point x="280" y="1021" type="curve" smooth="yes"/>
      <point x="187" y="1021"/>
      <point x="158" y="1074"/>
      <point x="144" y="1155" type="curve"/>
      <point x="10" y="1155" type="line"/>
      <point x="22" y="996"/>
      <point x="130" y="890"/>
    </contour>
    <contour>
      <point x="281" y="803" type="move" name="_top"/>
    </contour>
  </outline>
</glyph>
<glyph name="dotaccent" format="1">
  <advance width="600"/>
  <unicode hex="02D9"/>
  <outline>
    <contour>
      <point x="268" y="927" type="curve" smooth="yes"/>
      <point x="340" y="927"/>
      <point x="384" y="980"/>
      <point x="383" y="1038" type="curve"/>
      <point x="383" y="1108"/>
      <point x="330" y="1148"/>
      <point x="268" y="1148" type="curve" smooth="yes"/>
      <point x="206" y="1148"/>
      <point x="152" y="1101"/>
      <point x="153" y="1038" type="curve" smooth="yes"/>
      <point x="153" y="977"/>
      <point x="207" y="927"/>
    </contour>
    <contour>
      <point x="270" y="804" type="move" name="_top"/>
    </contour>
  </outline>
</glyph>
<glyph name="hungarumlaut" format="1">
  <advance width="927"/>
  <unicode hex="02DD"/>
  <outline>
    <contour>
      <point x="576" y="1241" type="line"/>
      <point x="464" y="891" type="line"/>
      <point x="616" y="891" type="line"/>
      <point x="860" y="1241" type="line"/>
    </contour>
    <contour>
      <point x="197" y="1241" type="line"/>
      <point x="85" y="891" type="line"/>
      <point x="236" y="891" type="line"/>
      <point x="481" y="1241" type="line"/>
    </contour>
    <contour>
      <point x="359" y="804" type="move" name="_top"/>
    </contour>
  </outline>
</glyph>
<glyph name="uni0311" format="1">
  <advance width="584"/>
  <unicode hex="0311"/>
  <outline>
    <contour>
      <point x="26" y="1083"/>
      <point x="13" y="909" type="curve"/>
      <point x="157" y="909" type="line"/>
      <point x="171" y="990"/>
      <point x="213" y="1033"/>
      <point x="280" y="1033" type="curve" smooth="yes"/>
      <point x="353" y="1033"/>
      <point x="397" y="990"/>
      <point x="407" y="909" type="curve"/>
      <point x="558" y="909" type="line"/>
      <point x="541" y="1083"/>
      <point x="446" y="1174"/>
      <point x="282" y="1174" type="curve" smooth="yes"/>
      <point x="118" y="1174"/>
    </contour>
    <contour>
      <point x="278" y="804" type="move" name="_top"/>
    </contour>
  </outline>
</glyph>
<glyph name="uni0326" format="1">
  <advance width="438"/>
  <unicode hex="0326"/>
  <outline>
    <contour>
      <point x="71" y="-727" type="line"/>
      <point x="336" y="-726"/>
      <point x="404" y="-594"/>
      <point x="403" y="-347" type="curve" smooth="yes"/>
      <point x="389" y="-87" type="line"/>
      <point x="79" y="-87" type="line"/>
      <point x="79" y="-387" type="line"/>
      <point x="244" y="-387" type="line"/>
      <point x="244" y="-525"/>
      <point x="196" y="-574"/>
      <point x="71" y="-599" type="curve"/>
    </contour>
    <contour>
      <point x="242" y="0" type="move" name="_bot"/>
    </contour>
  </outline>
</glyph>
<glyph name="emdash" format="1">
  <advance width="2442"/>
  <unicode hex="2014"/>
  <outline>
    <contour>
      <point x="350" y="149" type="line"/>
      <point x="350" y="18" type="line"/>
      <point x="2092" y="18" type="line"/>
      <point x="2092" y="149" type="line"/>
    </contour>
  </outline>
</glyph>
<glyph name="quoteleft" format="1">
  <advance width="640"/>
  <unicode hex="2018"/>
  <outline>
    <contour>
      <point x="188" y="851" type="line"/>
      <point x="377" y="851" type="line"/>
      <point x="377" y="1072" type="line"/>
      <point x="302" y="1072" type="line"/>
      <point x="304" y="1151"/>
      <point x="328" y="1178"/>
      <point x="385" y="1190" type="curve"/>
      <point x="385" y="1295" type="line"/>
      <point x="229" y="1291"/>
      <point x="188" y="1200"/>
      <point x="188" y="1066" type="curve" smooth="yes"/>
    </contour>
  </outline>
</glyph>
<glyph name="quoteright" format="1">
  <advance width="658"/>
  <unicode hex="2019"/>
  <outline>
    <contour>
      <point x="268" y="831" type="line"/>
      <point x="424" y="838"/>
      <point x="464" y="930"/>
      <point x="463" y="1064" type="curve" smooth="yes"/>
      <point x="463" y="1277" type="line"/>
      <point x="274" y="1277" type="line"/>
      <point x="274" y="1058" type="line"/>
      <point x="353" y="1058" type="line"/>
      <point x="346" y="978"/>
      <point x="327" y="948"/>
      <point x="268" y="938" type="curve"/>
    </contour>
  </outline>
</glyph>
<glyph name="quotesinglbase" format="1">
  <advance width="627"/>
  <unicode hex="201A"/>
  <outline>
    <contour>
      <point x="262" y="-251" type="line"/>
      <point x="418" y="-244"/>
      <point x="458" y="-152"/>
      <point x="457" y="-18" type="curve" smooth="yes"/>
      <point x="457" y="195" type="line"/>
      <point x="268" y="195" type="line"/>
      <point x="268" y="-24" type="line"/>
      <point x="347" y="-24" type="line"/>
      <point x="340" y="-104"/>
      <point x="321" y="-134"/>
      <point x="262" y="-144" type="curve"/>
    </contour>
  </outline>
</glyph>
<glyph name="quotedblleft" format="1">
  <advance width="968"/>
  <unicode hex="201C"/>
  <outline>
    <contour>
      <point x="839" y="1316" type="line"/>
      <point x="590" y="1310"/>
      <point x="573" y="1197"/>
      <point x="572" y="1003" type="curve"/>
      <point x="572" y="730" type="line"/>
      <point x="853" y="730" type="line"/>
      <point x="853" y="1007" type="line"/>
      <point x="714" y="1007" type="line"/>
      <point x="714" y="1127"/>
      <point x="712" y="1197"/>
      <point x="839" y="1197" type="curve"/>
    </contour>
    <contour>
      <point x="424" y="1316" type="line"/>
      <point x="175" y="1310"/>
      <point x="158" y="1197"/>
      <point x="157" y="1003" type="curve"/>
      <point x="157" y="730" type="line"/>
      <point x="438" y="730" type="line"/>
      <point x="438" y="1007" type="line"/>
      <point x="299" y="1007" type="line"/>
      <point x="299" y="1127"/>
      <point x="297" y="1197"/>
      <point x="424" y="1197" type="curve"/>
    </contour>
  </outline>
</glyph>
<glyph name="quotedblright" format="1">
  <advance width="968"/>
  <unicode hex="201D"/>
  <outline>
    <contour>
      <point x="539" y="1277" type="line"/>
      <point x="539" y="1058" type="line"/>
      <point x="618" y="1058" type="line"/>
      <point x="612" y="977"/>
      <point x="592" y="948"/>
      <point x="533" y="938" type="curve"/>
      <point x="533" y="831" type="line"/>
      <point x="689" y="837"/>
      <point x="728" y="930"/>
      <point x="728" y="1064" type="curve" smooth="yes"/>
      <point x="728" y="1277" type="line"/>
    </contour>
    <contour>
      <point x="274" y="1277" type="line"/>
      <point x="274" y="1058" type="line"/>
      <point x="353" y="1058" type="line"/>
      <point x="346" y="978"/>
      <point x="327" y="948"/>
      <point x="268" y="938" type="curve"/>
      <point x="268" y="831" type="line"/>
      <point x="424" y="838"/>
      <point x="464" y="930"/>
      <point x="463" y="1064" type="curve" smooth="yes"/>
      <point x="463" y="1277" type="line"/>
    </contour>
  </outline>
</glyph>
<glyph name="quotedblbase" format="1">
  <advance width="1011"/>
  <unicode hex="201E"/>
  <outline>
    <contour>
      <point x="190" y="-309" type="line"/>
      <point x="439" y="-303"/>
      <point x="456" y="-190"/>
      <point x="457" y="4" type="curve"/>
      <point x="457" y="277" type="line"/>
      <point x="176" y="277" type="line"/>
      <point x="176" y="0" type="line"/>
      <point x="315" y="0" type="line"/>
      <point x="315" y="-120"/>
      <point x="317" y="-190"/>
      <point x="190" y="-190" type="curve"/>
    </contour>
    <contour>
      <point x="605" y="-309" type="line"/>
      <point x="854" y="-303"/>
      <point x="871" y="-190"/>
      <point x="872" y="4" type="curve"/>
      <point x="872" y="277" type="line"/>
      <point x="591" y="277" type="line"/>
      <point x="591" y="0" type="line"/>
      <point x="730" y="0" type="line"/>
      <point x="730" y="-120"/>
      <point x="732" y="-190"/>
      <point x="605" y="-190" type="curve"/>
    </contour>
  </outline>
</glyph>
<glyph name="dagger" format="1">
  <advance width="748"/>
  <unicode hex="2020"/>
  <outline>
    <contour>
      <point x="327" y="0" type="curve"/>
      <point x="411" y="0" type="line"/>
      <point x="411" y="390"/>
      <point x="464" y="631"/>
      <point x="491" y="671" type="curve"/>
      <point x="411" y="808" type="line"/>
      <point x="651" y="775" type="line"/>
      <point x="651" y="976" type="line"/>
      <point x="411" y="943" type="line"/>
      <point x="478" y="1174" type="line"/>
      <point x="264" y="1174" type="line"/>
      <point x="327" y="943" type="line"/>
      <point x="89" y="976" type="line"/>
      <point x="89" y="775" type="line"/>
      <point x="327" y="808" type="line"/>
      <point x="251" y="671" type="line"/>
      <point x="275" y="629"/>
      <point x="327" y="386"/>
    </contour>
  </outline>
</glyph>
<glyph name="daggerdbl" format="1">
  <advance width="814"/>
  <unicode hex="2021"/>
  <outline>
    <contour>
      <point x="444" y="909" type="line"/>
      <point x="659" y="879" type="line"/>
      <point x="659" y="1060" type="line"/>
      <point x="444" y="1030" type="line"/>
      <point x="504" y="1237" type="line"/>
      <point x="312" y="1237" type="line"/>
      <point x="368" y="1030" type="line"/>
      <point x="155" y="1060" type="line"/>
      <point x="155" y="879" type="line"/>
      <point x="368" y="909" type="line"/>
      <point x="301" y="786" type="line"/>
      <point x="347" y="704"/>
      <point x="370" y="632"/>
      <point x="370" y="561" type="curve" smooth="yes"/>
      <point x="370" y="488"/>
      <point x="347" y="416"/>
      <point x="301" y="334" type="curve"/>
      <point x="368" y="211" type="line"/>
      <point x="155" y="241" type="line"/>
      <point x="155" y="60" type="line"/>
      <point x="368" y="90" type="line"/>
      <point x="312" y="-117" type="line"/>
      <point x="504" y="-117" type="line"/>
      <point x="444" y="90" type="line"/>
      <point x="659" y="60" type="line"/>
      <point x="659" y="241" type="line"/>
      <point x="444" y="211" type="line"/>
      <point x="515" y="334" type="line"/>
      <point x="468" y="406"/>
      <point x="443" y="483"/>
      <point x="443" y="561" type="curve" smooth="yes"/>
      <point x="443" y="637"/>
      <point x="467" y="714"/>
      <point x="515" y="786" type="curve"/>
    </contour>
  </outline>
</glyph>
<glyph name="ellipsis" format="1">
  <advance width="1964"/>
  <unicode hex="2026"/>
  <outline>
    <contour>
      <point x="862" y="277" type="curve"/>
      <point x="854" y="191"/>
      <point x="848" y="108"/>
      <point x="848" y="12" type="curve"/>
      <point x="946" y="4"/>
      <point x="1007" y="-2"/>
      <point x="1115" y="-2" type="curve"/>
      <point x="1125" y="82"/>
      <point x="1131" y="167"/>
      <point x="1131" y="265" type="curve"/>
      <point x="1035" y="271"/>
      <point x="970" y="277"/>
    </contour>
    <contour>
      <point x="276" y="277" type="curve"/>
      <point x="268" y="191"/>
      <point x="262" y="108"/>
      <point x="262" y="12" type="curve"/>
      <point x="360" y="4"/>
      <point x="421" y="-2"/>
      <point x="529" y="-2" type="curve"/>
      <point x="537" y="82"/>
      <point x="545" y="167"/>
      <point x="545" y="265" type="curve"/>
      <point x="449" y="271"/>
      <point x="384" y="277"/>
    </contour>
    <contour>
      <point x="1448" y="277" type="curve"/>
      <point x="1440" y="191"/>
      <point x="1434" y="108"/>
      <point x="1434" y="12" type="curve"/>
      <point x="1532" y="4"/>
      <point x="1593" y="-2"/>
      <point x="1703" y="-2" type="curve"/>
      <point x="1711" y="82"/>
      <point x="1717" y="167"/>
      <point x="1717" y="265" type="curve"/>
      <point x="1621" y="271"/>
      <point x="1558" y="277"/>
    </contour>
  </outline>
</glyph>
<glyph name="perthousand" format="1">
  <advance width="2603"/>
  <unicode hex="2030"/>
  <outline>
    <contour>
      <point x="2157" y="117" type="curve" smooth="yes"/>
      <point x="2061" y="119"/>
      <point x="2011" y="207"/>
      <point x="2011" y="282" type="curve" smooth="yes"/>
      <point x="2011" y="357"/>
      <point x="2061" y="443"/>
      <point x="2157" y="445" type="curve" smooth="yes"/>
      <point x="2258" y="443"/>
      <point x="2305" y="357"/>
      <point x="2305" y="282" type="curve" smooth="yes"/>
      <point x="2305" y="207"/>
      <point x="2258" y="119"/>
    </contour>
    <contour>
      <point x="2157" y="-22" type="curve" smooth="yes"/>
      <point x="2362" y="-22"/>
      <point x="2475" y="135"/>
      <point x="2475" y="282" type="curve" smooth="yes"/>
      <point x="2475" y="426"/>
      <point x="2362" y="582"/>
      <point x="2157" y="582" type="curve" smooth="yes"/>
      <point x="1957" y="582"/>
      <point x="1841" y="428"/>
      <point x="1841" y="282" type="curve" smooth="yes"/>
      <point x="1841" y="135"/>
      <point x="1956" y="-22"/>
    </contour>
    <component base="percent"/>
  </outline>
</glyph>
<glyph name="guilsinglright" format="1">
  <advance width="708"/>
  <unicode hex="203A"/>
  <outline>
    <contour>
      <point x="127" y="74" type="line"/>
      <point x="319" y="74" type="line"/>
      <point x="653" y="499" type="line"/>
      <point x="319" y="923" type="line"/>
      <point x="127" y="923" type="line"/>
      <point x="332" y="498" type="line"/>
    </contour>
  </outline>
</glyph>
<glyph name="fraction" format="1">
  <advance width="623"/>
  <unicode hex="2044"/>
  <outline>
    <contour>
      <point x="613" y="1321" type="line"/>
      <point x="-101" y="6" type="line"/>
      <point x="-14" y="-52" type="line"/>
      <point x="698" y="1263" type="line"/>
    </contour>
  </outline>
</glyph>
<glyph name="foursuperior" format="1">
  <advance width="988"/>
  <unicode hex="2074"/>
  <outline>
    <contour>
      <point x="594" y="1321" type="line"/>
      <point x="249" y="819" type="line"/>
      <point x="249" y="698" type="line"/>
      <point x="605" y="698" type="line"/>
      <point x="605" y="563" type="line"/>
      <point x="487" y="563" type="line"/>
      <point x="487" y="456" type="line"/>
      <point x="844" y="456" type="line"/>
      <point x="844" y="563" type="line"/>
      <point x="749" y="563" type="line"/>
      <point x="749" y="698" type="line"/>
      <point x="873" y="698" type="line"/>
      <point x="873" y="801" type="line"/>
      <point x="749" y="801" type="line"/>
      <point x="749" y="1321" type="line"/>
    </contour>
    <contour>
      <point x="605" y="801" type="line"/>
      <point x="372" y="801" type="line"/>
      <point x="605" y="1145" type="line"/>
    </contour>
  </outline>
</glyph>
<glyph name="uni2113" format="1">
  <advance width="776"/>
  <unicode hex="2113"/>
  <outline>
    <contour>
      <point x="665" y="-7" type="curve"/>
      <point x="689" y="167" type="line"/>
      <point x="481" y="167"/>
      <point x="478" y="216"/>
      <point x="504" y="402" type="curve" smooth="yes"/>
      <point x="630" y="1215" type="line"/>
      <point x="263" y="1215" type="line"/>
      <point x="232" y="1028" type="line"/>
      <point x="341" y="1028" type="line"/>
      <point x="227" y="279" type="line" smooth="yes"/>
      <point x="191" y="52"/>
      <point x="390" y="-9"/>
    </contour>
  </outline>
</glyph>
<glyph name="trademark" format="1">
  <advance width="1674"/>
  <unicode hex="2122"/>
  <outline>
    <contour>
      <point x="1204" y="1277" type="line"/>
      <point x="1079" y="892" type="line"/>
      <point x="958" y="1277" type="line"/>
      <point x="721" y="1277" type="line"/>
      <point x="721" y="1179" type="line"/>
      <point x="789" y="1179" type="line"/>
      <point x="789" y="809" type="line"/>
      <point x="721" y="809" type="line"/>
      <point x="721" y="710" type="line"/>
      <point x="946" y="710" type="line"/>
      <point x="946" y="809" type="line"/>
      <point x="879" y="809" type="line"/>
      <point x="879" y="1144" type="line"/>
      <point x="1046" y="710" type="line"/>
      <point x="1107" y="710" type="line"/>
      <point x="1261" y="1144" type="line"/>
      <point x="1261" y="809" type="line"/>
      <point x="1195" y="809" type="line"/>
      <point x="1195" y="710" type="line"/>
      <point x="1460" y="710" type="line"/>
      <point x="1460" y="809" type="line"/>
      <point x="1391" y="809" type="line"/>
      <point x="1391" y="1179" type="line"/>
      <point x="1460" y="1179" type="line"/>
      <point x="1460" y="1277" type="line"/>
    </contour>
    <contour>
      <point x="201" y="1277" type="line"/>
      <point x="201" y="1012" type="line"/>
      <point x="295" y="1012" type="line"/>
      <point x="295" y="1179" type="line"/>
      <point x="380" y="1179" type="line"/>
      <point x="380" y="809" type="line"/>
      <point x="306" y="809" type="line"/>
      <point x="306" y="710" type="line"/>
      <point x="582" y="710" type="line"/>
      <point x="582" y="809" type="line"/>
      <point x="512" y="809" type="line"/>
      <point x="512" y="1179" type="line"/>
      <point x="595" y="1179" type="line"/>
      <point x="595" y="1012" type="line"/>
      <point x="688" y="1012" type="line"/>
      <point x="688" y="1277" type="line"/>
    </contour>
  </outline>
</glyph>
<glyph name="uni2126" format="1">
  <advance width="2212"/>
  <unicode hex="2126"/>
  <outline>
    <contour>
      <point x="114" y="705" type="curve" smooth="yes"/>
      <point x="114" y="537"/>
      <point x="181" y="309"/>
      <point x="410" y="210" type="curve"/>
      <point x="214" y="210" type="line"/>
      <point x="214" y="0" type="line"/>
      <point x="627" y="0" type="line"/>
      <point x="627" y="201" type="line"/>
      <point x="425" y="338"/>
      <point x="343" y="555"/>
      <point x="343" y="684" type="curve" smooth="yes"/>
      <point x="343" y="804"/>
      <point x="421" y="887"/>
      <point x="703" y="887" type="curve" smooth="yes"/>
      <point x="985" y="887"/>
      <point x="1063" y="804"/>
      <point x="1063" y="682" type="curve" smooth="yes"/>
      <point x="1063" y="555"/>
      <point x="983" y="338"/>
      <point x="779" y="201" type="curve"/>
      <point x="779" y="0" type="line"/>
      <point x="1192" y="0" type="line"/>
      <point x="1192" y="210" type="line"/>
      <point x="996" y="210" type="line"/>
      <point x="1223" y="317"/>
      <point x="1292" y="547"/>
      <point x="1292" y="713" type="curve" smooth="yes"/>
      <point x="1292" y="951"/>
      <point x="1115" y="1174"/>
      <point x="703" y="1174" type="curve" smooth="yes"/>
      <point x="291" y="1174"/>
      <point x="114" y="945"/>
    </contour>
  </outline>
</glyph>
<glyph name="estimated" format="1">
  <advance width="600"/>
  <unicode hex="212E"/>
  <outline>
    <contour>
      <point x="591" y="-22" type="curve" smooth="yes"/>
      <point x="726" y="-22"/>
      <point x="867" y="28"/>
      <point x="976" y="129" type="curve"/>
      <point x="951" y="160" type="line"/>
      <point x="840" y="76"/>
      <point x="737" y="38"/>
      <point x="649" y="38" type="curve" smooth="yes"/>
      <point x="476" y="38"/>
      <point x="358" y="181"/>
      <point x="341" y="401" type="curve"/>
      <point x="967" y="401" type="line"/>
      <point x="967" y="673"/>
      <point x="862" y="866"/>
      <point x="580" y="866" type="curve" smooth="yes"/>
      <point x="312" y="866"/>
      <point x="134" y="680"/>
      <point x="134" y="420" type="curve" smooth="yes"/>
      <point x="134" y="131"/>
      <point x="354" y="-22"/>
    </contour>
    <contour>
      <point x="344" y="461" type="line"/>
      <point x="348" y="702"/>
      <point x="480" y="828"/>
      <point x="608" y="828" type="curve" smooth="yes"/>
      <point x="734" y="828"/>
      <point x="856" y="709"/>
      <point x="856" y="461" type="curve"/>
    </contour>
  </outline>
</glyph>
<glyph name="partialdiff" format="1">
  <advance width="1001"/>
  <unicode hex="2202"/>
  <outline>
    <contour>
      <point x="411" y="-22" type="curve" smooth="yes"/>
      <point x="768" y="-22"/>
      <point x="898" y="419"/>
      <point x="898" y="717" type="curve" smooth="yes"/>
      <point x="898" y="1039"/>
      <point x="766" y="1230"/>
      <point x="506" y="1230" type="curve" smooth="yes"/>
      <point x="341" y="1230"/>
      <point x="247" y="1157"/>
      <point x="247" y="1052" type="curve" smooth="yes"/>
      <point x="247" y="988"/>
      <point x="296" y="930"/>
      <point x="429" y="930" type="curve"/>
      <point x="429" y="1016"/>
      <point x="486" y="1122"/>
      <point x="598" y="1122" type="curve" smooth="yes"/>
      <point x="730" y="1122"/>
      <point x="799" y="954"/>
      <point x="799" y="722" type="curve" smooth="yes"/>
      <point x="799" y="703"/>
      <point x="797" y="667"/>
      <point x="793" y="645" type="curve"/>
      <point x="785" y="645" type="line"/>
      <point x="746" y="719"/>
      <point x="679" y="758"/>
      <point x="571" y="758" type="curve" smooth="yes"/>
      <point x="246" y="758"/>
      <point x="121" y="453"/>
      <point x="121" y="273" type="curve" smooth="yes"/>
      <point x="121" y="120"/>
      <point x="194" y="-22"/>
    </contour>
    <contour>
      <point x="504" y="89" type="curve" smooth="yes"/>
      <point x="424" y="89"/>
      <point x="378" y="155"/>
      <point x="378" y="261" type="curve" smooth="yes"/>
      <point x="378" y="406"/>
      <point x="454" y="655"/>
      <point x="629" y="655" type="curve" smooth="yes"/>
      <point x="709" y="655"/>
      <point x="750" y="585"/>
      <point x="770" y="505" type="curve"/>
      <point x="738" y="287"/>
      <point x="621" y="89"/>
    </contour>
  </outline>
</glyph>
<glyph name="uni2206" format="1">
  <advance width="1358"/>
  <unicode hex="2206"/>
  <outline>
    <contour>
      <point x="95" y="0" type="line"/>
      <point x="1256" y="0" type="line"/>
      <point x="1256" y="144" type="line"/>
      <point x="857" y="1246" type="line"/>
      <point x="520" y="1246" type="line"/>
      <point x="95" y="126" type="line"/>
    </contour>
    <contour>
      <point x="291" y="165" type="line"/>
      <point x="291" y="165"/>
      <point x="573" y="935"/>
      <point x="598" y="1054" type="curve"/>
      <point x="625" y="934"/>
      <point x="902" y="165"/>
      <point x="902" y="165" type="curve"/>
    </contour>
  </outline>
</glyph>
<glyph name="product" format="1">
  <advance width="1629"/>
  <unicode hex="220F"/>
  <outline>
    <contour>
      <point x="138" y="0" type="line"/>
      <point x="718" y="0" type="line"/>
      <point x="718" y="166" type="line"/>
      <point x="565" y="166" type="line"/>
      <point x="565" y="987" type="line"/>
      <point x="1064" y="987" type="line"/>
      <point x="1064" y="166" type="line"/>
      <point x="911" y="166" type="line"/>
      <point x="911" y="0" type="line"/>
      <point x="1491" y="0" type="line"/>
      <point x="1491" y="166" type="line"/>
      <point x="1341" y="166" type="line"/>
      <point x="1341" y="987" type="line"/>
      <point x="1491" y="987" type="line"/>
      <point x="1491" y="1151" type="line"/>
      <point x="138" y="1151" type="line"/>
      <point x="138" y="987" type="line"/>
      <point x="288" y="987" type="line"/>
      <point x="288" y="166" type="line"/>
      <point x="138" y="166" type="line"/>
    </contour>
  </outline>
</glyph>
<glyph name="summation" format="1">
  <advance width="1419"/>
  <unicode hex="2211"/>
  <outline>
    <contour>
      <point x="133" y="0" type="line"/>
      <point x="1207" y="0" type="line"/>
      <point x="1207" y="382" type="line"/>
      <point x="1004" y="382" type="line"/>
      <point x="1004" y="166" type="line"/>
      <point x="442" y="166" type="line"/>
      <point x="820" y="587" type="line"/>
      <point x="819" y="622" type="line"/>
      <point x="530" y="987" type="line"/>
      <point x="1002" y="987" type="line"/>
      <point x="1002" y="790" type="line"/>
      <point x="1203" y="790" type="line"/>
      <point x="1203" y="1151" type="line"/>
      <point x="133" y="1151" type="line"/>
      <point x="133" y="987" type="line"/>
      <point x="255" y="987" type="line"/>
      <point x="610" y="558" type="line"/>
      <point x="255" y="166" type="line"/>
      <point x="133" y="166" type="line"/>
    </contour>
  </outline>
</glyph>
<glyph name="minus" format="1">
  <advance width="1219"/>
  <unicode hex="2212"/>
  <outline>
    <contour>
      <point x="200" y="510" type="line"/>
      <point x="1020" y="510" type="line"/>
      <point x="1020" y="674" type="line"/>
      <point x="200" y="674" type="line"/>
    </contour>
  </outline>
</glyph>
<glyph name="radical" format="1">
  <advance width="1309"/>
  <unicode hex="221A"/>
  <outline>
    <contour>
      <point x="540" y="-14" type="line"/>
      <point x="726" y="-14" type="line"/>
      <point x="1188" y="1363" type="line"/>
      <point x="1063" y="1363" type="line"/>
      <point x="667" y="194" type="line"/>
      <point x="454" y="691" type="line"/>
      <point x="106" y="691" type="line"/>
      <point x="106" y="568" type="line"/>
      <point x="272" y="568" type="line"/>
    </contour>
  </outline>
</glyph>
<glyph name="integral" format="1">
  <advance width="793"/>
  <unicode hex="222B"/>
  <outline>
    <contour>
      <point x="166" y="-348" type="curve" smooth="yes"/>
      <point x="500" y="-348"/>
      <point x="500" y="84"/>
      <point x="500" y="449" type="curve" smooth="yes"/>
      <point x="500" y="610"/>
      <point x="470" y="821"/>
      <point x="470" y="925" type="curve" smooth="yes"/>
      <point x="470" y="1093"/>
      <point x="501" y="1143"/>
      <point x="552" y="1143" type="curve" smooth="yes"/>
      <point x="600" y="1143"/>
      <point x="630" y="1089"/>
      <point x="630" y="987" type="curve"/>
      <point x="763" y="987"/>
      <point x="803" y="1045"/>
      <point x="803" y="1107" type="curve" smooth="yes"/>
      <point x="803" y="1181"/>
      <point x="731" y="1233"/>
      <point x="590" y="1233" type="curve" smooth="yes"/>
      <point x="254" y="1233"/>
      <point x="245" y="829"/>
      <point x="245" y="526" type="curve" smooth="yes"/>
      <point x="245" y="380"/>
      <point x="286" y="118"/>
      <point x="286" y="-39" type="curve" smooth="yes"/>
      <point x="286" y="-211"/>
      <point x="249" y="-258"/>
      <point x="205" y="-258" type="curve" smooth="yes"/>
      <point x="157" y="-258"/>
      <point x="120" y="-218"/>
      <point x="120" y="-95" type="curve"/>
      <point x="-14" y="-95"/>
      <point x="-53" y="-151"/>
      <point x="-53" y="-211" type="curve" smooth="yes"/>
      <point x="-53" y="-286"/>
      <point x="12" y="-348"/>
    </contour>
  </outline>
</glyph>
<glyph name="approxequal" format="1">
  <advance width="1163"/>
  <unicode hex="2248"/>
  <outline>
    <contour>
      <point x="120" y="306" type="line"/>
      <point x="183" y="375"/>
      <point x="273" y="427"/>
      <point x="347" y="427" type="curve" smooth="yes"/>
      <point x="406" y="427"/>
      <point x="449" y="415"/>
      <point x="548" y="372" type="curve" smooth="yes"/>
      <point x="673" y="319"/>
      <point x="718" y="308"/>
      <point x="795" y="308" type="curve" smooth="yes"/>
      <point x="895" y="308"/>
      <point x="978" y="344"/>
      <point x="1043" y="417" type="curve"/>
      <point x="1043" y="574" type="line"/>
      <point x="979" y="507"/>
      <point x="891" y="453"/>
      <point x="816" y="453" type="curve" smooth="yes"/>
      <point x="758" y="453"/>
      <point x="714" y="466"/>
      <point x="615" y="509" type="curve" smooth="yes"/>
      <point x="490" y="562"/>
      <point x="445" y="572"/>
      <point x="367" y="572" type="curve" smooth="yes"/>
      <point x="268" y="572"/>
      <point x="186" y="536"/>
      <point x="120" y="464" type="curve"/>
    </contour>
    <contour>
      <point x="120" y="648" type="line"/>
      <point x="183" y="717"/>
      <point x="273" y="769"/>
      <point x="347" y="769" type="curve" smooth="yes"/>
      <point x="406" y="769"/>
      <point x="449" y="757"/>
      <point x="548" y="714" type="curve" smooth="yes"/>
      <point x="673" y="661"/>
      <point x="718" y="650"/>
      <point x="795" y="650" type="curve" smooth="yes"/>
      <point x="895" y="650"/>
      <point x="978" y="686"/>
      <point x="1043" y="759" type="curve"/>
      <point x="1043" y="916" type="line"/>
      <point x="979" y="849"/>
      <point x="891" y="795"/>
      <point x="816" y="795" type="curve" smooth="yes"/>
      <point x="758" y="795"/>
      <point x="714" y="808"/>
      <point x="615" y="851" type="curve" smooth="yes"/>
      <point x="490" y="904"/>
      <point x="445" y="914"/>
      <point x="367" y="914" type="curve" smooth="yes"/>
      <point x="268" y="914"/>
      <point x="186" y="878"/>
      <point x="120" y="806" type="curve"/>
    </contour>
  </outline>
</glyph>
<glyph name="notequal" format="1">
  <advance width="1145"/>
  <unicode hex="2260"/>
  <outline>
    <contour>
      <point x="363" y="250" type="line"/>
      <point x="532" y="250" type="line"/>
      <point x="583" y="453" type="line"/>
      <point x="1020" y="453" type="line"/>
      <point x="1020" y="618" type="line"/>
      <point x="626" y="618" type="line"/>
      <point x="684" y="844" type="line"/>
      <point x="1020" y="844" type="line"/>
      <point x="1020" y="1009" type="line"/>
      <point x="728" y="1009" type="line"/>
      <point x="780" y="1212" type="line"/>
      <point x="613" y="1212" type="line"/>
      <point x="558" y="1009" type="line"/>
      <point x="125" y="1009" type="line"/>
      <point x="125" y="844" type="line"/>
      <point x="515" y="844" type="line"/>
      <point x="455" y="618" type="line"/>
      <point x="125" y="618" type="line"/>
      <point x="125" y="453" type="line"/>
      <point x="412" y="453" type="line"/>
    </contour>
  </outline>
</glyph>
<glyph name="lessequal" format="1">
  <advance width="923"/>
  <unicode hex="2264"/>
  <outline>
    <contour>
      <point x="-77" y="780" type="line"/>
      <point x="-77" y="684" type="line"/>
      <point x="802" y="201" type="line"/>
      <point x="802" y="388" type="line"/>
      <point x="170" y="731" type="line"/>
      <point x="802" y="1080" type="line"/>
      <point x="802" y="1265" type="line"/>
    </contour>
    <contour>
      <point x="-77" y="169" type="line"/>
      <point x="-77" y="0" type="line"/>
      <point x="802" y="0" type="line"/>
      <point x="802" y="169" type="line"/>
    </contour>
  </outline>
</glyph>
<glyph name="greaterequal" format="1">
  <advance width="925"/>
  <unicode hex="2265"/>
  <outline>
    <contour>
      <point x="123" y="201" type="line"/>
      <point x="1002" y="684" type="line"/>
      <point x="1002" y="780" type="line"/>
      <point x="123" y="1265" type="line"/>
      <point x="123" y="1080" type="line"/>
      <point x="755" y="731" type="line"/>
      <point x="123" y="388" type="line"/>
    </contour>
    <contour>
      <point x="123" y="0" type="line"/>
      <point x="1002" y="0" type="line"/>
      <point x="1002" y="169" type="line"/>
      <point x="123" y="169" type="line"/>
    </contour>
  </outline>
</glyph>
<glyph name="fi" format="1">
  <advance width="1240"/>
  <unicode hex="FB01"/>
  <outline>
    <contour>
      <point x="94" y="0" type="line"/>
      <point x="627" y="0" type="line"/>
      <point x="627" y="166" type="line"/>
      <point x="453" y="166" type="line"/>
      <point x="453" y="640" type="line"/>
      <point x="867" y="640" type="line"/>
      <point x="867" y="166" type="line"/>
      <point x="738" y="166" type="line"/>
      <point x="738" y="0" type="line"/>
      <point x="1228" y="0" type="line"/>
      <point x="1228" y="166" type="line"/>
      <point x="1111" y="166" type="line"/>
      <point x="1111" y="804" type="line"/>
      <point x="453" y="804" type="line"/>
      <point x="453" y="887" type="line" smooth="yes"/>
      <point x="453" y="1146"/>
      <point x="524" y="1220"/>
      <point x="656" y="1220" type="curve" smooth="yes"/>
      <point x="738" y="1220"/>
      <point x="820" y="1191"/>
      <point x="869" y="1157" type="curve"/>
      <point x="858" y="1139"/>
      <point x="851" y="1118"/>
      <point x="851" y="1097" type="curve" smooth="yes"/>
      <point x="851" y="1028"/>
      <point x="914" y="968"/>
      <point x="982" y="968" type="curve" smooth="yes"/>
      <point x="1060" y="968"/>
      <point x="1127" y="1028"/>
      <point x="1127" y="1097" type="curve" smooth="yes"/>
      <point x="1127" y="1240"/>
      <point x="904" y="1338"/>
      <point x="671" y="1338" type="curve" smooth="yes"/>
      <point x="414" y="1338"/>
      <point x="205" y="1217"/>
      <point x="205" y="895" type="curve" smooth="yes"/>
      <point x="205" y="804" type="line"/>
      <point x="74" y="804" type="line"/>
      <point x="74" y="640" type="line"/>
      <point x="205" y="640" type="line"/>
      <point x="205" y="166" type="line"/>
      <point x="94" y="166" type="line"/>
    </contour>
  </outline>
</glyph>
<glyph name="fl" format="1">
  <advance width="1375"/>
  <unicode hex="FB02"/>
  <outline>
    <contour>
      <point x="231" y="961" type="curve" smooth="yes"/>
      <point x="231" y="804" type="line"/>
      <point x="100" y="804" type="line"/>
      <point x="100" y="640" type="line"/>
      <point x="231" y="640" type="line"/>
      <point x="231" y="166" type="line"/>
      <point x="120" y="166" type="line"/>
      <point x="120" y="0" type="line"/>
      <point x="653" y="0" type="line"/>
      <point x="653" y="166" type="line"/>
      <point x="479" y="166" type="line"/>
      <point x="479" y="640" type="line"/>
      <point x="646" y="640" type="line"/>
      <point x="646" y="804" type="line"/>
      <point x="479" y="804" type="line"/>
      <point x="479" y="984" type="line" smooth="yes"/>
      <point x="479" y="1072"/>
      <point x="610" y="1119"/>
      <point x="728" y="1119" type="curve" smooth="yes"/>
      <point x="827" y="1119"/>
      <point x="917" y="1087"/>
      <point x="917" y="1025" type="curve" smooth="yes"/>
      <point x="917" y="166" type="line"/>
      <point x="767" y="166" type="line"/>
      <point x="767" y="0" type="line"/>
      <point x="1265" y="0" type="line"/>
      <point x="1265" y="166" type="line"/>
      <point x="1165" y="166" type="line"/>
      <point x="1165" y="1166" type="line" smooth="yes"/>
      <point x="1165" y="1233"/>
      <point x="932" y="1318"/>
      <point x="696" y="1318" type="curve" smooth="yes"/>
      <point x="462" y="1318"/>
      <point x="231" y="1238"/>
    </contour>
  </outline>
</glyph>
<glyph name="ffi" format="1">
  <advance width="1718"/>
  <outline>
    <contour>
      <point x="91" y="959" type="curve" smooth="yes"/>
      <point x="91" y="804" type="line"/>
      <point x="-40" y="804" type="line"/>
      <point x="-40" y="640" type="line"/>
      <point x="91" y="640" type="line"/>
      <point x="91" y="166" type="line"/>
      <point x="-20" y="166" type="line"/>
      <point x="-20" y="0" type="line"/>
      <point x="433" y="0" type="line"/>
      <point x="433" y="166" type="line"/>
      <point x="339" y="166" type="line"/>
      <point x="339" y="640" type="line"/>
      <point x="645" y="640" type="line"/>
      <point x="645" y="804" type="line"/>
      <point x="339" y="804" type="line"/>
      <point x="339" y="940" type="line" smooth="yes"/>
      <point x="339" y="1170"/>
      <point x="723" y="1138"/>
      <point x="766" y="1028" type="curve"/>
      <point x="821" y="1152" type="line"/>
      <point x="675" y="1366"/>
      <point x="91" y="1292"/>
    </contour>
    <component base="fi" xOffset="423"/>
  </outline>
</glyph>
<glyph name="ffl" format="1">
  <advance width="1769"/>
  <outline>
    <contour>
      <point x="231" y="959" type="curve" smooth="yes"/>
      <point x="231" y="804" type="line"/>
      <point x="100" y="804" type="line"/>
      <point x="100" y="640" type="line"/>
      <point x="231" y="640" type="line"/>
      <point x="231" y="166" type="line"/>
      <point x="120" y="166" type="line"/>
      <point x="120" y="0" type="line"/>
      <point x="573" y="0" type="line"/>
      <point x="573" y="166" type="line"/>
      <point x="479" y="166" type="line"/>
      <point x="479" y="640" type="line"/>
      <point x="785" y="640" type="line"/>
      <point x="785" y="804" type="line"/>
      <point x="479" y="804" type="line"/>
      <point x="479" y="940" type="line" smooth="yes"/>
      <point x="479" y="1170"/>
      <point x="856" y="1138"/>
      <point x="899" y="1028" type="curve"/>
      <point x="954" y="1152" type="line"/>
      <point x="808" y="1366"/>
      <point x="231" y="1292"/>
    </contour>
    <component base="fl" xOffset="394"/>
  </outline>
</glyph>
<glyph name="lc_bowl_left" format="1">
  <advance width="1420"/>
  <outline>
    <contour>
      <point x="964" y="196" type="curve"/>
      <point x="924" y="327" type="line"/>
      <point x="846" y="213"/>
      <point x="742" y="142"/>
      <point x="654" y="142" type="curve" smooth="yes"/>
      <point x="518" y="142"/>
      <point x="433" y="243"/>
      <point x="433" y="405" type="curve" smooth="yes"/>
      <point x="433" y="563"/>
      <point x="519" y="662"/>
      <point x="656" y="662" type="curve" smooth="yes"/>
      <point x="756" y="662"/>
      <point x="861" y="593"/>
      <point x="928" y="482" type="curve"/>
      <point x="952" y="597" type="line"/>
      <point x="892" y="738"/>
      <point x="762" y="826"/>
      <point x="614" y="826" type="curve" smooth="yes"/>
      <point x="343" y="826"/>
      <point x="173" y="664"/>
      <point x="173" y="405" type="curve" smooth="yes"/>
      <point x="173" y="143"/>
      <point x="324" y="-22"/>
      <point x="564" y="-22" type="curve" smooth="yes"/>
      <point x="689" y="-22"/>
      <point x="843" y="62"/>
    </contour>
  </outline>
</glyph>
<glyph name="lc_xheight_stem" format="1">
  <advance width="753"/>
  <outline>
    <contour>
      <point x="148" y="0" type="line"/>
      <point x="638" y="0" type="line"/>
      <point x="638" y="164" type="line"/>
      <point x="521" y="164" type="line"/>
      <point x="521" y="595" type="line"/>
      <point x="511" y="804" type="line"/>
      <point x="151" y="804" type="line"/>
      <point x="151" y="640" type="line"/>
      <point x="277" y="640" type="line"/>
      <point x="277" y="164" type="line"/>
      <point x="148" y="164" type="line"/>
    </contour>
  </outline>
</glyph>
<glyph name="uc_main_stem" format="1">
  <advance width="915"/>
  <outline>
    <contour>
      <point x="141" y="0" type="line"/>
      <point x="761" y="0" type="line"/>
      <point x="761" y="164" type="line"/>
      <point x="585" y="164" type="line"/>
      <point x="585" y="988" type="line"/>
      <point x="761" y="988" type="line"/>
      <point x="761" y="1152" type="line"/>
      <point x="141" y="1152" type="line"/>
      <point x="141" y="988" type="line"/>
      <point x="315" y="988" type="line"/>
      <point x="315" y="164" type="line"/>
      <point x="141" y="164" type="line"/>
    </contour>
  </outline>
</glyph>
